<?xml version="1.0" encoding="utf-8"?>
<!-- Generator: Adobe Illustrator 23.0.6, SVG Export Plug-In . SVG Version: 6.00 Build 0)  -->
<svg version="1.1" id="Layer_1" xmlns="http://www.w3.org/2000/svg" xmlns:xlink="http://www.w3.org/1999/xlink" x="0px" y="0px"
	 viewBox="0 0 258 194" style="enable-background:new 0 0 258 194;" xml:space="preserve">
<style type="text/css">
	.st0{fill:#FFFFFF;}
	.st1{fill:none;}
	.st2{opacity:0.8;fill:#0E0733;}
	.st3{fill:#0E0733;}
	.st4{fill:#FFFFFF;stroke:#FFFFFF;stroke-miterlimit:10;}
	.st5{fill:none;stroke:#0E0733;stroke-width:0.4427;stroke-miterlimit:10;}
	.st6{fill:none;stroke:#0E0733;stroke-width:0.5541;stroke-linecap:round;stroke-miterlimit:10;}
	.st7{fill:#122A51;}
	.st8{opacity:0.04;clip-path:url(#SVGID_4_);}
	.st9{fill:#231F20;stroke:#FFFFFF;stroke-width:1.2317;stroke-miterlimit:10;}
	.st10{fill:#FFFFFF;stroke:#FFFFFF;stroke-width:1.2317;stroke-miterlimit:10;}
	.st11{fill:none;stroke:#FFFFFF;stroke-width:8.0133;stroke-miterlimit:10;}
	.st12{opacity:0.2;}
	.st13{clip-path:url(#SVGID_6_);}
	.st14{fill:#231F20;stroke:#FFFFFF;stroke-width:1.2257;stroke-miterlimit:10;}
	.st15{fill:none;stroke:#122A51;stroke-width:7.9746;stroke-miterlimit:10;}
	.st16{fill:none;stroke:#FFFFFF;stroke-width:7.9746;stroke-miterlimit:10;}
	.st17{fill:#6D6E71;}
	.st18{fill:none;stroke:#122A51;stroke-miterlimit:10;}
	.st19{fill:#C7C8CA;}
	.st20{fill:#231F20;}
	.st21{fill:none;stroke:#0E0733;stroke-miterlimit:10;}
	.st22{opacity:0.04;clip-path:url(#SVGID_10_);}
	.st23{fill:#231F20;stroke:#FFFFFF;stroke-miterlimit:10;}
	.st24{fill:none;stroke:#FFFFFF;stroke-width:6.5061;stroke-miterlimit:10;}
	.st25{fill:none;stroke:#FFFFFF;stroke-width:0.8698;stroke-miterlimit:10;}
	.st26{opacity:0.8;fill:none;stroke:#FFFFFF;stroke-width:0.8942;stroke-miterlimit:10;}
	.st27{opacity:0.7;fill:#122A51;}
	.st28{opacity:0.7;fill:#AD0E0E;}
	.st29{opacity:0.15;fill:#AD0E0E;}
	.st30{fill:none;stroke:#FFFFFF;stroke-width:2.4152;stroke-linecap:round;stroke-linejoin:round;stroke-miterlimit:10;}
	.st31{fill:#6D6E70;stroke:#6D6E70;stroke-width:1.9895;stroke-miterlimit:10;}
	.st32{fill:#FFFFFF;stroke:#FFFFFF;stroke-width:2.0489;stroke-miterlimit:10;}
	.st33{fill:#A6A8AB;}
	.st34{fill:#020202;}
	.st35{fill:#151515;}
	.st36{fill:#1D1C1C;stroke:#151515;stroke-width:0.2934;stroke-miterlimit:10;}
	.st37{fill:#8E8D8C;}
	.st38{fill:#181818;stroke:#121111;stroke-width:0.3373;stroke-linecap:round;stroke-linejoin:round;stroke-miterlimit:10;}
	.st39{fill:#2A2B2A;stroke:#121111;stroke-width:0.3373;stroke-linecap:round;stroke-linejoin:round;stroke-miterlimit:10;}
	.st40{fill:#1D1D1D;stroke:#121111;stroke-width:0.3912;stroke-miterlimit:10;}
	.st41{fill:#2A2B2A;stroke:#121111;stroke-width:0.3912;stroke-miterlimit:10;}
	.st42{fill:#050505;}
	.st43{fill:#121111;}
	.st44{fill:#1D1D1D;}
	.st45{fill:#15172D;}
	.st46{fill:#282827;stroke:#121111;stroke-width:0.3912;stroke-miterlimit:10;}
	.st47{fill:#232323;}
	.st48{fill:#1B1F39;}
	.st49{fill:#121422;}
	.st50{fill:#0F1018;}
	.st51{fill:#1D1D1D;stroke:#121111;stroke-width:0.3912;stroke-linecap:round;stroke-miterlimit:10;}
	.st52{fill:#383838;stroke:#121111;stroke-width:0.253;stroke-miterlimit:10;}
	.st53{fill:#1D1D1D;stroke:#121111;stroke-width:0.3373;stroke-miterlimit:10;}
	.st54{fill:#353535;stroke:#121111;stroke-width:0.1686;stroke-miterlimit:10;}
	.st55{fill:#121112;}
	.st56{fill:#353535;}
	.st57{fill:#2A2B2A;}
	.st58{fill:#282827;}
	.st59{fill:#2A2B2A;stroke:#121111;stroke-width:0.3373;stroke-miterlimit:10;}
	.st60{fill:#050505;stroke:#121111;stroke-width:0.3373;stroke-miterlimit:10;}
	.st61{fill:#050505;stroke:#121111;stroke-width:0.253;stroke-miterlimit:10;}
	.st62{fill:#232323;stroke:#121111;stroke-width:0.3373;stroke-miterlimit:10;}
	.st63{fill:#161311;stroke:#171412;stroke-width:0.1525;stroke-miterlimit:10;}
	.st64{fill:#282827;stroke:#121111;stroke-width:0.253;stroke-miterlimit:10;}
	.st65{fill:#1B1C1C;}
	.st66{fill:#0B0B0B;}
	.st67{fill:#AAAAAA;}
	.st68{fill:#181818;}
	.st69{fill:#474748;}
	.st70{fill:#49494A;}
	.st71{fill:#575757;}
	.st72{fill:#1D1D1D;stroke:#121111;stroke-width:0.1686;stroke-miterlimit:10;}
	.st73{fill:#232323;stroke:#121111;stroke-width:0.1686;stroke-miterlimit:10;}
	.st74{fill:#181818;stroke:#121111;stroke-width:0.253;stroke-miterlimit:10;}
	.st75{fill:#794632;}
	.st76{fill:#8E5944;}
	.st77{opacity:0.55;}
	.st78{fill:none;stroke:#814E45;stroke-width:1.1842;stroke-linecap:round;stroke-miterlimit:10;}
	.st79{fill:#1D1C1C;}
	.st80{fill:#333333;stroke:#1D1C1C;stroke-width:0.3912;stroke-miterlimit:10;}
	.st81{fill:#3E3C3C;}
	.st82{fill:#161616;}
	.st83{fill:#AD0E0E;}
	.st84{fill:#804B48;}
	.st85{fill:#231F20;stroke:#231F20;stroke-width:2.3684;stroke-miterlimit:10;}
	.st86{fill:#AD0E0E;stroke:#AD0E0E;stroke-miterlimit:10;}
	.st87{fill:#FFFFFF;stroke:#FFFFFF;stroke-width:0.2419;stroke-miterlimit:10;}
	.st88{fill:#FFFFFF;stroke:#FFFFFF;stroke-width:0.3465;stroke-miterlimit:10;}
	.st89{fill:#FFFFFF;stroke:#FFFFFF;stroke-width:0.3294;stroke-miterlimit:10;}
	.st90{fill:#FFFFFF;stroke:#FFFFFF;stroke-width:1.0418;stroke-miterlimit:10;}
	.st91{fill:#FFFFFF;stroke:#FFFFFF;stroke-width:1.5972;stroke-miterlimit:10;}
	.st92{opacity:0.25;}
	.st93{clip-path:url(#SVGID_12_);}
	.st94{opacity:0.1;fill:#AB1F23;}
	.st95{opacity:0.2;fill:#AB1F23;}
	.st96{fill:#58595B;}
	.st97{opacity:0.75;fill:#FFFFFF;}
	.st98{fill:#FFFFFF;stroke:#FFFFFF;stroke-width:1.2603;stroke-miterlimit:10;}
	.st99{fill:#FFFFFF;stroke:#FFFFFF;stroke-width:2.7067;stroke-miterlimit:10;}
	.st100{fill:#FFFFFF;stroke:#FFFFFF;stroke-width:1.8334;stroke-miterlimit:10;}
	.st101{fill:none;stroke:#FFFFFF;stroke-width:3.9376;stroke-miterlimit:10;}
	.st102{opacity:0.04;clip-path:url(#SVGID_18_);}
	.st103{fill:none;stroke:#231F20;stroke-width:6.4328;stroke-miterlimit:10;}
	.st104{opacity:0.04;clip-path:url(#SVGID_20_);}
	.st105{fill:none;stroke:#231F20;stroke-width:6.5295;stroke-miterlimit:10;}
	.st106{opacity:0.06;fill:#AB1F23;}
	.st107{opacity:0.06;fill:none;stroke:#AB1F23;stroke-miterlimit:10;}
	.st108{opacity:0.1;fill:none;stroke:#AB1F23;stroke-miterlimit:10;}
	.st109{opacity:0.04;clip-path:url(#SVGID_24_);}
	.st110{fill:#83524B;}
	.st111{fill:#6D433C;}
	.st112{fill:#724640;}
	.st113{fill:#84534C;}
	.st114{fill:#1C146D;}
	.st115{fill:#35281F;}
	.st116{opacity:0.44;}
	.st117{fill:#724440;}
	.st118{fill:#050316;}
	.st119{fill:#7A4632;}
	.st120{opacity:0.28;}
	.st121{fill:#683628;}
	.st122{fill:#7A4733;}
	.st123{fill:#AFABD3;}
</style>
<g class="st12">
	<defs>
		<rect id="SVGID_5_" x="-789" y="-2996.5" class="st12" width="1366" height="1222"/>
	</defs>
	<clipPath id="SVGID_2_">
		<use xlink:href="#SVGID_5_"  style="overflow:visible;"/>
	</clipPath>
	<g style="clip-path:url(#SVGID_2_);">
		<polyline class="st15" points="-335.26,76.4 -92.7,-90.28 65.96,-32.47 201.55,-100.15 310.97,-221.02 333.72,-359.88 
			433.89,-374.62 573.94,-300.59 710.77,-128.83 881.54,-3.18 896.15,-126.62 681.44,-446.7 598.91,-538.8 488.08,-742.73 
			508.95,-987.9 435.55,-1132.23 423.22,-1251.9 461.52,-1372.73 555.54,-1431.73 662.33,-1562.63 717.76,-1701.53 611.93,-1861.75 
			547.31,-2012.46 402.68,-2074.65 278.65,-2121.69 102.9,-2117.08 -79.22,-2118.16 -301.33,-2032.01 -504,-1856.92 
			-612.39,-1769.7 -710.69,-1666.1 -738.67,-1537.98 -857.68,-1485.99 -939.55,-1345.06 -955.76,-1092.48 -980.2,-814.15 
			-1039.95,-620.27 -949.25,-478.53 -963.41,-344.13 -888.24,-256.53 		"/>
	</g>
</g>
<path class="st110" d="M197.07,63.11c-1.82,1.88-4.83,4.45-6.62,6.35s-3.22,4.38-3.03,6.99c0.13,1.77,1,3.57,0.42,5.25
	c-0.44,1.27-1.6,2.12-2.5,3.12c-0.9,1-1.57,2.52-0.84,3.65c0.23,0.35,0.57,0.62,0.81,0.97c0.78,1.13,0.3,2.65-0.09,3.97
	c-1.77,6.06-0.73,12.54,0.32,18.77c0.1,0.61,0.21,1.23,0.44,1.81c0.93,2.31,3.6,3.37,6.05,3.81c2.45,0.44,5.08,0.54,7.16,1.92
	c1.86,1.23,3.69,4.98,3.64,7.21c3.56-3.97,7.71-4.8,12.16-7.73c0.51-0.33,1.04-0.68,1.35-1.2c0.23-0.39,0.28-0.84,0.36-1.29
	c0.95-5.36-4.04-13.88-5.27-18.9c-0.3-1.24-1.03-3.4-1.34-4.65c-0.73-2.95-2.01-4.4-4.21-6.5c-2.2-2.1-5.32-3.78-7.82-5.51
	c-1.12-0.77-2.27-1.61-2.88-2.82c-0.74-1.47-0.55-3.21-0.35-4.84c0.22-1.76,0.47-3.59,1.45-5.07c0.5-0.75,1.19-1.4,1.45-2.26
	s-0.18-2.03-1.08-2.07"/>
<g>
	<g>
		<path class="st111" d="M203.33,95.08c0.26-0.35,0.38-0.8,0.61-1.17c0.01-0.01,0.13-0.17,0.12-0.17c0,0.01-0.26,0.03-0.26,0.05
			c0,0,0.03,0.15,0.03,0.15c-0.02,0.34-0.25,0.61-0.4,0.9c-0.65,1.29-0.17,2.66-0.18,4.02c-0.01,0.67-0.19,1.28-0.67,1.77
			c-0.29,0.29-1.22,0.97-1.64,0.6c-0.39-0.35,0.1-1.19,0.29-1.51c0.33-0.53,0.74-1.01,1.06-1.54c0.43-0.72,0.55-1.47,0.61-2.29
			c0.06-0.69,0.15-1.52,0.84-1.86c-0.24-0.14-0.48-0.28-0.72-0.41c-0.02,0.48-0.44,0.95-0.61,1.39c-0.17,0.46-0.25,0.95-0.3,1.43
			c-0.1,0.97,0,1.97-0.19,2.93c-0.04,0.23-0.1,0.45-0.18,0.67c-0.08,0.22-0.24,0.4-0.33,0.61c-0.02,0.03-0.05,0.05-0.08,0.08
			c0.09,0.07,0.16,0.06,0.2-0.03c0.09-0.06,0.16-0.2,0.24-0.28c0.19-0.22,0.39-0.43,0.59-0.64c0.71-0.78,1.33-1.63,1.42-2.71
			c0.05-0.56-0.78-0.62-0.94-0.13c-0.32,0.99-0.07,2.35-0.89,3.13c0.25,0.19,0.5,0.39,0.75,0.58c0.18-0.42,0.33-0.84,0.4-1.29
			c0.06-0.33,0.13-0.7-0.11-0.97c-0.52-0.6-1.45,0.18-1.8,0.61c-0.33,0.4-0.94,1.38-0.23,1.75c0.83,0.43,1.18-1.01,1.33-1.53
			c0.18-0.59-0.75-0.84-0.92-0.25c-0.09,0.29-0.18,0.81-0.41,1.02c0.11-0.05,0.23-0.09,0.34-0.14c0.03,0.01,0.06,0.02,0.09,0.03
			c0.07,0.1,0.15,0.19,0.22,0.29c-0.04-0.12,0.26-0.49,0.34-0.58c0.06-0.07,0.46-0.47,0.54-0.44c-0.1-0.07-0.19-0.15-0.29-0.22
			c0.06,0.07-0.08,0.49-0.1,0.57c-0.06,0.23-0.13,0.46-0.23,0.69c-0.21,0.48,0.33,0.98,0.75,0.58c1.01-0.95,0.75-2.35,1.14-3.55
			c-0.31-0.04-0.63-0.08-0.94-0.13c-0.06,0.68-0.46,1.27-0.9,1.77c-0.43,0.5-1.03,0.98-1.33,1.58c-0.27,0.54-0.03,1.17,0.59,1.27
			c0.61,0.1,1.04-0.41,1.28-0.91c0.54-1.1,0.51-2.34,0.55-3.53c0.02-0.6,0.06-1.21,0.25-1.78c0.21-0.64,0.67-1.13,0.71-1.83
			c0.02-0.39-0.41-0.56-0.72-0.41c-0.78,0.38-1.13,1.22-1.25,2.03c-0.06,0.45-0.06,0.91-0.14,1.36c-0.08,0.49-0.28,0.91-0.55,1.32
			c-0.45,0.69-1.01,1.31-1.31,2.1c-0.26,0.7-0.24,1.68,0.5,2.09c0.72,0.41,1.71,0,2.32-0.44c0.66-0.48,1.13-1.2,1.29-2
			c0.18-0.95-0.04-1.88-0.09-2.83c-0.02-0.39-0.02-0.8,0.09-1.18c0.14-0.48,0.51-0.87,0.62-1.37c0.15-0.67-0.4-1.82-1.23-1.32
			c-0.56,0.35-0.65,1.15-1.02,1.65C202.14,95.09,202.97,95.56,203.33,95.08L203.33,95.08z"/>
	</g>
</g>
<g>
	<g>
		<path class="st112" d="M197.25,103.01c0.29,1.04,1.05,1.82,1.99,2.31c1.05,0.54,2.42,1.04,3.61,1.07c2.3,0.06,3.92-2.08,4.92-3.89
			c1.13-2.03,1.74-4.34,1.8-6.65c0.05-2.19-0.37-4.57-1.58-6.43c-1.33-2.04-3.89-3.41-6.31-2.49c-0.88,0.33-0.5,1.76,0.39,1.43
			c1.68-0.64,3.45,0.18,4.48,1.57c1.06,1.45,1.47,3.34,1.54,5.1c0.07,1.82-0.25,3.64-0.92,5.33c-0.62,1.55-1.62,3.43-3.14,4.26
			c-1.02,0.56-2.1,0.14-3.12-0.2c-0.92-0.31-1.95-0.77-2.23-1.79C198.42,101.7,196.99,102.09,197.25,103.01L197.25,103.01z"/>
	</g>
</g>
<g>
	<path class="st113" d="M215.77,111.85c0.53,1.33,2.23,1.66,3.65,1.79c2.15,0.2,4.34-1.58,6.44-2.08c1.09-0.26,1-0.6,1.65,0.31
		c0.2,0.28,0.28,2.61,0.34,2.95c0.78,4.12,0.75,6.41-0.08,10.53c-0.1,0.49-0.22,1.01-0.57,1.38c-0.44,0.47-1.12,0.61-1.76,0.71
		c-6.14,0.97-10.86,1.47-17.07,1.49c-1.61,0.01-3.33-0.06-4.63-1c-0.3-0.22-0.34-0.75-0.44-1.11c-0.1-0.36,0-0.74,0.12-1.1
		c0.56-1.61,1.37-0.76,2.44-2.08c3.03-3.71,6.36-7.16,9.68-10.61"/>
	<g>
		<path class="st113" d="M215.34,112.1c0.77,1.74,3.33,2.23,5.03,2.01c1.13-0.15,2.18-0.65,3.2-1.12c0.55-0.26,1.1-0.52,1.67-0.72
			c0.46-0.16,0.98-0.22,1.42-0.43c0.07-0.03,0.26-0.03,0.12-0.08c0.11,0.04,0.25,0.27,0.3,0.36c0.04,0.09,0.09,0.53,0.11,0.73
			c0.06,0.66,0.07,1.33,0.16,1.99c0.17,1.21,0.42,2.4,0.51,3.62c0.08,1.11,0.07,2.23-0.04,3.34c-0.12,1.26-0.3,2.56-0.62,3.78
			c-0.15,0.59-0.42,0.99-1.02,1.19c-0.58,0.19-1.22,0.24-1.83,0.33c-2.61,0.4-5.22,0.74-7.85,0.97c-2.62,0.23-5.26,0.34-7.89,0.35
			c-1.17,0.01-2.39,0.02-3.51-0.36c-0.56-0.19-1.09-0.41-1.24-1.01c-0.14-0.58-0.1-1.29,0.33-1.76c0.24-0.26,0.62-0.32,0.93-0.47
			c0.51-0.23,0.88-0.6,1.24-1.03c1-1.2,2.01-2.38,3.05-3.54c2.11-2.35,4.29-4.62,6.48-6.89c0.44-0.46-0.26-1.16-0.7-0.7
			c-2.1,2.19-4.21,4.37-6.24,6.62c-1.04,1.16-2.06,2.33-3.06,3.53c-0.36,0.43-0.68,0.88-1.21,1.12c-0.35,0.16-0.71,0.24-1.01,0.48
			c-0.84,0.68-1.01,1.9-0.76,2.89c0.29,1.14,1.33,1.58,2.4,1.84c1.31,0.32,2.68,0.27,4.02,0.25c1.45-0.02,2.9-0.06,4.34-0.14
			c2.74-0.15,5.46-0.44,8.18-0.81c1.41-0.19,2.86-0.33,4.24-0.64c1.18-0.27,1.84-0.98,2.1-2.15c0.56-2.48,0.84-5.05,0.61-7.59
			c-0.1-1.16-0.4-2.46-0.51-3.5c-0.08-0.78-0.09-1.56-0.2-2.33c-0.1-0.63-0.56-1.48-1.3-1.46c-0.41,0.01-0.88,0.24-1.27,0.35
			c-0.69,0.19-1.35,0.48-1.99,0.78c-1.3,0.6-2.65,1.35-4.13,1.24c-1.18-0.09-2.7-0.34-3.23-1.55
			C215.94,111.02,215.09,111.52,215.34,112.1L215.34,112.1z"/>
	</g>
</g>
<g>
	<path class="st114" d="M231.69,123.91c4.95,3.41,11.25,6.94,14.58,11.11c5.85,7.34,6.35,24.82,6.73,33.11
		c0.01,0.33,0,0.7-0.35,0.92c-0.3,0.19-0.75,0.21-1.16,0.23c-9.16,0.36-18.33,0.68-27.49,0.99c-14.47,0.49-30.72,0.97-44.81-1.27
		c-0.39-0.06-0.82-0.14-1.04-0.36c-0.18-0.18-0.18-0.41-0.17-0.62c0.16-4-0.2-16.68,1.95-20.42c2.05-3.56,5.08-7.11,7.17-10.66
		c1.26-2.14,5.7-4.34,8.08-6.02c4.55-3.22,11.84-3.83,18.49-4.11c6.66-0.28,12.45-0.55,17.57-3.37"/>
	<g>
		<path class="st114" d="M230.8,125.43c5.35,3.62,12.11,6.89,15.39,12.69c2.86,5.06,3.64,11.49,4.23,17.17
			c0.26,2.54,0.44,5.09,0.58,7.64c0.06,1.06,0.26,2.24,0.16,3.3c-0.22,2.38-0.04,1.61-2.62,1.42c-7.99-0.59-16.53,0.6-24.55,0.87
			c-7.51,0.25-15.03,0.49-22.55,0.39c-3.94-0.05-7.87-0.19-11.8-0.48c-2.05-0.15-9.32-0.2-9.89-1.46c-0.62-1.38,0.05-4.67,0.09-6.18
			c0.07-2.83,0.14-5.71,0.58-8.51c0.81-5.25,5.25-11.23,8.78-15.07c11.37-12.36,29.33-5.44,42.92-12.25
			c2.02-1.01,0.24-4.04-1.77-3.03c-8.42,4.22-18.18,2.47-27.19,4.15c-5.83,1.09-13.05,4.57-16.97,9.18
			c-4.09,4.81-8.46,10.81-9.3,17.18c-0.61,4.61-1.67,11.23-0.64,15.82c0.51,2.27,1.99,2.32,4.17,2.7c4.51,0.78,9.17,1.04,13.73,1.25
			c9.36,0.44,18.74,0.19,28.1-0.12c5.16-0.17,10.33-0.35,15.49-0.53c4.52-0.16,9.79,0.37,14.21-0.58c4.72-1.01,2.58-8.2,2.32-11.75
			c-0.53-7.15-1.26-14.8-4.3-21.38c-3.37-7.3-11.04-11.15-17.4-15.45C230.7,121.13,228.94,124.17,230.8,125.43L230.8,125.43z"/>
	</g>
</g>
<g>
	<path class="st115" d="M213.1,113.72c3.46,0.38,6.96,0.45,10.43,0.2c2.92-0.21,6.13-0.8,7.93-3.11c0.63-0.81,1.03-1.76,1.42-2.71
		c1.3-3.13,2.61-6.25,3.91-9.38c0.66-1.59,1.33-3.18,1.99-4.77c0.63-1.51,1.26-3.01,1.76-4.56c1.45-4.44,1.86-9.21,1.2-13.83
		c-0.29-2.03-0.8-4.05-1.8-5.84c-1.05-1.88-3.18-5.11-4.89-6.42c-5.04-3.85-10.81-7.16-17.14-7.65c-6.33-0.48-12.36,0.81-18.53,2.97
		c-1.74,0.61-3.52,2.1-5.1,3.05c-0.68,0.41-1.83,2.37-2.34,2.99c-0.99,1.21-0.46,3.02,0.99,3.59c0.61,0.25,1.22-0.55,1.81-0.26
		c0.26,0.13,0.53,0.27,0.66,0.53c0.17,0.32,0.06,0.72-0.06,1.06c-0.91,2.49-2.69,4.77-2.67,7.42c0.01,1.3,0.45,2.55,0.89,3.78
		c1.18,3.27,0.73,7.51,1.91,10.79c0.28,0.77,2.42,0.74,3.24,0.64c0.31-1.34,0.78-2.64,1.39-3.86c0.56-1.11,1.64-1.91,2.88-2.01
		c1.37-0.11,2.44,0.32,2.92,0.62c5.01,3.18,4.56,9.66,5.42,15.53C211.88,106.37,213.21,109.79,213.1,113.72"/>
</g>
<g class="st116">
	<path class="st117" d="M195.35,118.33c2.59,0.03,2.13-0.49,4.67-1.02c3.16-0.67,6.07-2.19,9.13-3.23c-0.18,0.7-0.51,1.36-0.97,1.92
		c-0.65,0.8-1.84,1.71-2.58,2.42c-1.5,1.43-2.72,3.16-3.65,5.02c-0.67-1.29-1.07-2.18-1.99-3.06c-0.34-0.33-0.6-0.59-1.02-0.81
		C197.72,118.91,196.7,118.62,195.35,118.33"/>
</g>
<g>
	<path class="st20" d="M198.2,89.99c0.73-2.47,3.32-4.25,5.88-4.05c2.1,0.16,3.98,1.51,5.22,3.22c1.24,1.71,1.91,3.75,2.44,5.79
		c1.37,5.3,1.86,10.83,1.44,16.29c-0.04,0.49-0.07,1.03,0.21,1.43c0.25,0.37,0.69,0.54,1.11,0.68c3.38,1.15,7.01,1.57,10.57,1.25
		c0.96-0.09,1.93-0.24,2.78-0.69c1.64-0.88,2.51-2.7,3.26-4.4c1.94-4.36,3.87-8.72,5.81-13.09c2.88-6.5,5.83-13.71,3.78-20.52
		c-0.68-2.26-1.88-4.33-3.12-6.33c-1.54-2.46-3.18-4.89-5.25-6.92c-5.86-5.74-14.54-7.73-22.74-7.45c-3.23,0.11-6.49,0.54-9.5,1.73
		c-5.55,2.2-9.83,6.84-12.86,11.98c1.54,0.94,3.75-0.15,5.27,0.82c1.72,1.09,1.2,3.66,0.88,5.67c-0.8,4.98,0.94,9.97,2.65,14.71"/>
	<g>
		<path class="st20" d="M200.63,90.66c0.55-1.63,2.4-2.58,4.04-2.03c2.16,0.72,3.35,2.95,4.03,4.97c1.84,5.48,2.33,11.44,1.97,17.18
			c-0.1,1.59,0.08,3.06,1.39,4.13c1.14,0.93,2.81,1.27,4.22,1.59c2.99,0.69,6.13,0.94,9.19,0.6c3-0.33,5.27-1.64,6.82-4.27
			c1.45-2.47,2.44-5.28,3.6-7.9c2.51-5.65,5.44-11.31,7.03-17.3c1.56-5.91,1.16-11.64-1.81-17.03c-2.72-4.92-6.09-9.64-10.83-12.79
			c-4.3-2.85-9.35-4.28-14.42-4.87c-6.15-0.73-12.86-0.31-18.48,2.45c-5.3,2.59-9.37,7.27-12.35,12.26
			c-0.67,1.13-0.3,2.84,0.91,3.46c1.08,0.55,2.16,0.76,3.36,0.76c0.48,0,1.61-0.17,1.87,0.05c-0.24-0.2-0.02,0.25-0.02,0.15
			c-0.04,0.44,0.01,0.89-0.03,1.33c-0.09,0.91-0.28,1.8-0.38,2.71c-0.55,5.05,1.15,10.01,2.83,14.68c0.46,1.28,1.72,2.15,3.11,1.77
			c1.24-0.34,2.23-1.82,1.77-3.11c-0.91-2.53-1.82-5.09-2.37-7.73c-0.51-2.48-0.37-4.82-0.03-7.3c0.29-2.16,0.27-4.56-1.42-6.18
			c-0.96-0.92-2.19-1.34-3.49-1.44c-0.77-0.06-1.99,0.28-2.66-0.06c0.3,1.15,0.6,2.31,0.91,3.46c2.33-3.91,5.34-7.52,9.34-9.81
			c4.43-2.54,9.77-2.89,14.77-2.6c4.48,0.26,9.01,1.33,12.92,3.58c4.44,2.56,7.35,6.66,9.88,11.01c1.27,2.18,2.32,4.49,2.49,7.04
			c0.18,2.64-0.26,5.21-1,7.74c-1.58,5.41-4.19,10.53-6.47,15.66c-1.12,2.52-2.06,5.25-3.5,7.61c-1.26,2.06-3.87,1.82-6.02,1.74
			c-1.26-0.05-2.49-0.19-3.72-0.45c-0.68-0.14-1.36-0.32-2.03-0.52c-0.13-0.04-0.85-0.31-0.89-0.28c-0.16-0.02-0.07,0.1,0.25,0.35
			c0.24,0.48,0.34,0.47,0.29-0.02c0.22-0.48,0.09-1.34,0.11-1.87c0.03-0.7,0.04-1.41,0.04-2.11c-0.01-1.49-0.08-2.97-0.21-4.45
			c-0.3-3.22-0.84-6.44-1.74-9.54c-0.81-2.8-2.07-5.61-4.34-7.53c-2.19-1.85-5.04-2.8-7.88-2.07c-2.84,0.73-5,2.92-5.92,5.66
			C194.72,92.41,199.6,93.74,200.63,90.66L200.63,90.66z"/>
	</g>
</g>
<g>
	<g>
		<path class="st20" d="M199.26,58.25c2.13-1.31,4.27-2.63,6.4-3.94c-0.63-0.36-1.27-0.73-1.9-1.09c-0.06,0.93-0.46,1.65-1.13,2.29
			c-1.04,0.99,0.3,2.74,1.53,1.99c1.27-0.78,2.55-1.57,3.82-2.35c0.54-0.33,1.06-0.69,1.62-0.99c0.3-0.16,0.65-0.25,0.94-0.4
			c0.09-0.08,0.15-0.08,0.18,0c0.06,0.13,0.11,0.05,0.14-0.25c-1.37,0.67-0.35,2.55,0.97,2.31c7.92-1.44,16.32,0.91,22.36,6.21
			c0.6-0.6,1.19-1.19,1.79-1.79c-1.28-1.03-2.56-2.05-3.84-3.08c-0.41,0.7-0.82,1.41-1.23,2.11c2.67,0.8,5.09,2.14,7.18,3.98
			c0.3-0.72,0.6-1.44,0.89-2.16c-1.4-0.06-2.74-0.3-4.08-0.71c-1.56-0.48-2.22,1.95-0.67,2.44c1.85,0.58,3.8,1.22,5.48,2.19
			c0.8,0.46,0.53,0.4,0.07,1.03c-0.11,0.13-0.24,0.23-0.39,0.3c0.31,0.11,0.61,0.21,0.92,0.32c0.03-0.08-0.24-0.52-0.31-0.62
			c-0.52-0.88-1.63-0.75-2.18,0c-0.99,1.34,1.74,4.12,2.35,4.96c1.95,2.72,3.49,5.7,4.57,8.86c0.77-0.32,1.54-0.65,2.31-0.97
			c-4.01-5.25-5.41-12-9.82-16.99c-0.98-1.11-2.65,0.31-1.99,1.53c3.78,6.99,7.69,14.28,8.06,22.39c0.83-0.11,1.66-0.22,2.48-0.34
			c-0.81-2.21-1.42-4.46-1.84-6.77c-0.25-1.39-2.59-1.09-2.48,0.34c0.5,6.65,0.98,15.54-5.84,19.3c0.58,0.58,1.15,1.15,1.73,1.73
			c0.96-1.72,1.52-3.5,1.78-5.45c0.19-1.43-2.14-1.69-2.48-0.34c-0.98,3.83-1.72,7.7-2.24,11.62c-0.21,1.54,2,1.53,2.48,0.34
			c1.05-2.58,1.95-5.21,2.69-7.9c-0.83-0.11-1.66-0.22-2.48-0.34c-0.14,3.56-0.29,7.11-0.43,10.67c0.63-0.36,1.27-0.73,1.9-1.09
			c-1.25-0.58-2.12-1.42-2.73-2.66c-0.42-0.85-1.75-0.8-2.18,0c-0.74,1.38-1.05,2.85-1.34,4.37c-0.28,1.47-0.56,2.96-1.7,4.02
			c0.7,0.41,1.41,0.82,2.11,1.23c0.37-1.5,0.74-2.99,1.11-4.49c0.28-1.15-1.26-2.24-2.11-1.23c-2.03,2.39-4.24,4.59-6.64,6.61
			c0.72,0.3,1.44,0.6,2.16,0.89c0.05-0.95,0.34-1.75,0.86-2.55c-0.77-0.1-1.54-0.2-2.31-0.3c0.42,1.16,0.83,2.31,1.25,3.47
			c0.34,0.95,1.77,1.34,2.31,0.3c0.83-1.6,1.66-3.2,2.49-4.79c-0.66,0.09-1.32,0.17-1.99,0.26c0.38,0.36,0.63,0.72,0.86,1.19
			c0.35,0.73,1.46,0.82,1.99,0.26c1.97-2.09,3.08-4.68,3.26-7.55c-0.83,0.11-1.66,0.22-2.48,0.34c0.32,0.83,0.46,1.62,0.44,2.51
			c0.84,0,1.69,0,2.53,0c-0.2-1.67-0.4-3.34-0.61-5.01c-0.19-1.6-2.73-1.62-2.53,0c0.2,1.67,0.4,3.34,0.61,5.01
			c0.19,1.57,2.49,1.67,2.53,0c0.03-1.1-0.14-2.15-0.53-3.19c-0.5-1.33-2.39-1.13-2.48,0.34c-0.14,2.18-1.03,4.17-2.52,5.76
			c0.66,0.09,1.32,0.17,1.99,0.26c-0.32-0.65-0.73-1.2-1.26-1.7c-0.56-0.53-1.6-0.49-1.99,0.26c-0.83,1.6-1.66,3.2-2.49,4.79
			c0.77,0.1,1.54,0.2,2.31,0.3c-0.42-1.16-0.83-2.31-1.25-3.47c-0.37-1.03-1.7-1.25-2.31-0.3c-0.76,1.17-1.14,2.43-1.2,3.82
			c-0.06,1.18,1.38,1.55,2.16,0.89c2.4-2.01,4.61-4.22,6.64-6.61c-0.7-0.41-1.41-0.82-2.11-1.23c-0.37,1.5-0.74,2.99-1.11,4.49
			c-0.31,1.25,1.19,2.09,2.11,1.23c2.59-2.39,1.89-6.02,3.44-8.9c-0.73,0-1.46,0-2.18,0c0.78,1.58,2.04,2.82,3.64,3.57
			c0.87,0.41,1.86-0.08,1.9-1.09c0.14-3.56,0.29-7.11,0.43-10.67c0.06-1.44-2.11-1.7-2.48-0.34c-0.74,2.69-1.64,5.32-2.69,7.9
			c0.83,0.11,1.66,0.22,2.48,0.34c0.5-3.69,1.23-7.34,2.15-10.95c-0.83-0.11-1.66-0.22-2.48-0.34c-0.2,1.48-0.7,2.87-1.43,4.17
			c-0.63,1.11,0.62,2.34,1.73,1.73c7.7-4.25,7.67-13.86,7.09-21.48c-0.83,0.11-1.66,0.22-2.48,0.34c0.42,2.31,1.03,4.56,1.84,6.77
			c0.46,1.26,2.55,1.18,2.48-0.34c-0.4-8.58-4.41-16.26-8.41-23.66c-0.66,0.51-1.32,1.02-1.99,1.53c4.24,4.8,5.55,11.41,9.42,16.48
			c0.79,1.03,2.82,0.51,2.31-0.97c-0.97-2.82-2.24-5.53-3.86-8.04c-1.01-1.56-2.64-3.08-3.19-4.8c-0.04,0.32-0.09,0.65-0.13,0.97
			c0,0,0,0,0-0.01c-0.73,0-1.46,0-2.18,0c0.63,1.05,1.29,1.9,2.65,1.3c0.98-0.43,2.17-1.62,2.42-2.7c0.36-1.57-1.07-2.68-2.3-3.29
			c-1.83-0.91-3.74-1.64-5.69-2.25c-0.22,0.81-0.45,1.63-0.67,2.44c1.55,0.48,3.13,0.74,4.75,0.8c1.06,0.04,1.71-1.44,0.89-2.16
			c-2.42-2.14-5.2-3.7-8.29-4.63c-1.15-0.35-2.24,1.3-1.23,2.11c1.28,1.03,2.56,2.05,3.84,3.08c1.24,1,3.03-0.7,1.79-1.79
			c-6.77-5.95-15.97-8.48-24.82-6.87c0.32,0.77,0.65,1.54,0.97,2.31c2.11-1.03,1-4.08-1.01-4.41c-1.32-0.22-2.5,0.51-3.58,1.17
			c-1.56,0.95-3.11,1.91-4.67,2.87c0.51,0.66,1.02,1.32,1.53,1.99c1.16-1.1,1.76-2.49,1.87-4.08c0.07-0.96-1.12-1.57-1.9-1.09
			c-2.13,1.31-4.27,2.63-6.4,3.94C196.6,56.91,197.87,59.1,199.26,58.25L199.26,58.25z"/>
	</g>
</g>
<g>
	<path class="st3" d="M55.72,152.66c9.82,2.1,19.68,4.01,29.57,5.75c-1.03-2.14,0.27-4.63-0.03-6.98c-1-7.98-1.92-15.81-3.54-23.55
		c-0.5-2.41-1.11-4.86-2.49-6.9c-1.58-2.31-4.02-3.86-6.38-5.34c-7.44-4.66-15.36-9.46-24.13-9.62c-3.65-0.07-7.57,0.63-10.76-1.15
		c-1.51-0.84-2.88-2.24-4.6-2.16c-0.82,0.04-1.59,0.42-2.32,0.79c-3.71,1.88-7.41,3.76-11.12,5.64c-2.14,1.09-4.32,2.19-6.11,3.8
		c-2.06,1.85-3.55,4.34-4.19,7.04c-0.34-1.15-0.08-2.46,0.68-3.38c0.44,3.59,0.13,7.28-0.9,10.75c-0.39-2.22,0.62-9.01,0.23-11.22
		c0.52,8.29-2,21.15-1.73,29.44c0.2,5.95,0.12,11.38-1.06,16.13c-0.16,0.65,0.2,1.41,0.73,1.83c0.43,0.35,1.02,0.39,1.57,0.42
		c23.89,1.14,47.54-6.58,71.43-5.53c-2.44,1.5-5.17,2.46-7.91,3.28c-10.6,3.17-22.08,3.48-33.14,2.98
		c-10.49-0.48-20.97-0.09-31.14-1.36c25.22-0.52,50.81,1.04,75.39-4.66"/>
	<g>
		<path class="st3" d="M54.94,155.49c9.82,2.09,19.68,4.01,29.57,5.75c1.91,0.34,4.56-1.33,3.61-3.61c-0.71-1.7,0.12-3.59,0.12-5.37
			c0.01-2.2-0.5-4.49-0.77-6.67c-0.57-4.51-1.18-9.02-1.96-13.5c-0.71-4.08-1.27-8.64-3.5-12.22c-2.16-3.47-5.76-5.57-9.14-7.67
			c-6.89-4.28-14.2-8.3-22.43-9.02c-2-0.17-3.99-0.03-5.99-0.01c-1.69,0.02-3.48,0-5-0.83c-1.67-0.91-3.02-2.16-4.98-2.46
			c-2.4-0.37-4.41,0.83-6.47,1.87c-4.36,2.21-8.95,4.21-13.11,6.77c-3.98,2.45-6.93,6.1-8.1,10.67c1.89,0,3.77,0,5.66,0
			c-0.16-0.64-0.12-0.05-0.03-0.39c0.06-0.24,0.2-0.44,0.42-0.73c-1.82-0.49-3.65-0.99-5.47-1.48c0.38,3.39,0.15,6.69-0.79,9.97
			c1.89,0,3.77,0,5.66,0c0.15,0.97,0.02-0.15,0.02-0.42c-0.01-0.49,0.01-0.97,0.03-1.46c0.04-1.09,0.12-2.18,0.2-3.27
			c0.14-2.03,0.3-4.05-0.01-6.07c-0.22-1.42-1.93-2.3-3.22-2.1c-1.36,0.21-2.63,1.4-2.54,2.88c0.4,7.02-0.79,14.09-1.38,21.07
			c-0.29,3.44-0.37,6.84-0.29,10.29c0.09,3.95,0.1,7.98-0.66,11.88c-0.18,0.93-0.51,1.89-0.47,2.85c0.05,1.23,0.61,2.42,1.48,3.28
			c1.67,1.64,4.22,1.44,6.38,1.48c4.35,0.09,8.69-0.08,13.02-0.43c8.83-0.7,17.6-2.08,26.38-3.26c9.75-1.31,19.57-2.34,29.43-1.94
			c-0.49-1.82-0.99-3.65-1.48-5.47c-3.81,2.28-8.26,3.44-12.57,4.34c-4.37,0.92-8.82,1.38-13.28,1.58
			c-4.65,0.21-9.31,0.12-13.96-0.08c-4.82-0.21-9.64-0.25-14.47-0.35c-5.49-0.12-10.98-0.33-16.43-0.99c0,1.96,0,3.91,0,5.87
			c19.8-0.4,39.69,0.48,59.39-1.9c5.64-0.68,11.24-1.6,16.77-2.87c1.55-0.36,2.46-2.13,2.05-3.61c-0.44-1.59-2.06-2.41-3.61-2.05
			c-18.94,4.35-38.47,4.37-57.81,4.41c-5.6,0.01-11.2,0.03-16.8,0.14c-1.59,0.03-2.93,1.33-2.93,2.93c0,1.75,1.35,2.74,2.93,2.93
			c9.85,1.2,19.78,0.92,29.67,1.29c9.6,0.37,19.18,0.4,28.66-1.39c5.25-1,10.72-2.44,15.34-5.2c2.56-1.53,1.39-5.35-1.48-5.47
			c-16.86-0.7-33.44,2.85-50.13,4.66c-4.17,0.45-8.35,0.79-12.54,0.93c-2.13,0.07-4.27,0.08-6.4,0.03
			c-0.47-0.01-0.95-0.03-1.42-0.04c-0.28-0.01-1.05-0.19-1.28-0.06c0.88-0.48,0.71,0.96,0.94,1.07c0.01,0.01,0.23-0.99,0.27-1.15
			c1.42-7.29,0.49-14.65,1.03-22c0.56-7.56,1.96-15.19,1.52-22.79c-1.92,0.26-3.84,0.52-5.76,0.78c-0.15-0.97-0.02,0.15-0.02,0.42
			c0.01,0.49-0.01,0.97-0.03,1.46c-0.04,1.09-0.12,2.18-0.2,3.27c-0.14,2.03-0.3,4.05,0.01,6.07c0.19,1.25,1.65,2.15,2.83,2.15
			c1.3,0,2.47-0.91,2.83-2.15c1.07-3.74,1.44-7.66,1-11.53c-0.34-2.97-3.68-3.9-5.47-1.48c-1.2,1.62-1.45,3.71-0.98,5.64
			c0.69,2.81,4.95,2.78,5.66,0c0.82-3.2,2.78-5.58,5.58-7.27c3.43-2.07,7.14-3.73,10.71-5.54c0.89-0.45,1.78-0.9,2.67-1.35
			c0.62-0.32,1.43-0.93,2.14-0.95c0.33-0.01-0.08-0.06,0.23,0.07c0.34,0.14,0.66,0.37,0.96,0.57c0.7,0.45,1.37,0.94,2.11,1.32
			c3.61,1.82,7.56,1.33,11.45,1.35c7.27,0.04,13.88,3.6,19.93,7.28c2.79,1.69,6.11,3.31,8.2,5.88c2.24,2.74,2.59,6.99,3.2,10.35
			c0.8,4.44,1.42,8.9,1.99,13.38c0.28,2.22,0.85,4.61,0.73,6.85c-0.12,2.23-0.8,4.33,0.1,6.51c1.2-1.2,2.41-2.41,3.61-3.61
			c-9.89-1.74-19.75-3.66-29.57-5.75c-1.55-0.33-3.17,0.46-3.61,2.05C52.49,153.34,53.38,155.16,54.94,155.49L54.94,155.49z"/>
	</g>
</g>
<g>
	<g>
		<path class="st118" d="M89.68,159.51c-0.88-6.36-1.53-12.75-2.1-19.15c-0.36-4.01-0.62-8.06-1.36-12.02
			c-0.49-2.62-1.29-5.26-2.89-7.43c-0.57-0.77-1.22-1.46-1.74-2.27c-0.45-0.7-0.9-1.39-1.48-1.99c-0.65-0.67-1.39-1.26-2.14-1.82
			c-2.15-1.6-4.47-2.95-6.83-4.22c-5.69-3.07-11.67-5.82-17.81-7.85c-0.97-0.32-1.39,1.21-0.42,1.53c5.38,1.78,10.6,4.15,15.63,6.74
			c2.39,1.23,4.75,2.53,6.98,4.01c1.28,0.85,2.57,1.75,3.61,2.88c0.56,0.61,0.95,1.35,1.42,2.03c0.32,0.47,0.69,0.89,1.06,1.32
			c0.65,0.78,1.34,1.9,1.81,2.98c0.04,0.09,0.19,0.46,0.27,0.69c0.12,0.33,0.23,0.67,0.34,1.01c0.19,0.65,0.36,1.3,0.5,1.96
			c0.78,3.68,1.03,7.47,1.36,11.21c0.62,6.95,1.32,13.88,2.27,20.79c0.06,0.43,0.6,0.65,0.98,0.56
			C89.59,160.37,89.74,159.94,89.68,159.51L89.68,159.51z"/>
	</g>
</g>
<g>
	<g>
		<path class="st118" d="M88.71,158.96c-5.8,1.81-11.6,3.62-17.51,5.05c-5.96,1.45-12,2.41-18.12,2.85
			c-6.11,0.44-12.24,0.45-18.36,0.38c-6.14-0.08-12.29-0.14-18.42-0.55c-2.75-0.18-5.52-0.4-8.25-0.76
			c-0.7-0.09-1.52-0.24-1.99-0.82c-0.66-0.83-0.65-2.21-0.7-3.21c-0.15-2.86,0.12-5.74,0.04-8.6c-0.08-2.88-0.15-5.72,0.27-8.58
			c0.89-6.06,0.6-12.21,0.94-18.31c0.08-1.49,0.18-2.98,0.3-4.46c0.11-1.39,0.12-2.77,0.18-4.16c0.06-1.41,0.66-2.37,1.67-3.32
			c0.98-0.92,2.05-1.76,3.09-2.61c1.89-1.53,3.85-2.95,5.97-4.16c1.47-0.83,2.94-1.52,4.3-2.51c2.8-2.05,5.44-4.44,8.49-6.13
			c0.48-0.27,0.8-0.45,1.32-0.53c1.01-0.16,0.58-1.7-0.42-1.53c-1.31,0.21-2.57,1.18-3.63,1.92c-1.58,1.09-3.1,2.28-4.63,3.45
			c-1.17,0.9-2.34,1.88-3.64,2.61c-1,0.56-2.04,1.03-3.03,1.61c-1.08,0.64-2.14,1.33-3.15,2.07c-1.03,0.75-2.03,1.54-3.01,2.34
			c-1.05,0.86-2.14,1.7-3.09,2.66c-0.99,1.01-1.62,2.12-1.78,3.53c-0.16,1.38-0.06,2.78-0.18,4.17c-0.26,3.18-0.44,6.36-0.54,9.54
			c-0.1,3.15,0.03,6.31-0.29,9.45c-0.29,2.93-0.79,5.86-0.81,8.82c-0.02,2.95,0.14,5.9,0.05,8.85c-0.05,1.49-0.09,2.98,0.03,4.46
			c0.09,1.16,0.19,2.48,0.88,3.46c1.19,1.67,3.41,1.59,5.24,1.79c6.28,0.7,12.59,0.91,18.9,1.02c6.37,0.12,12.75,0.23,19.12-0.01
			c6.25-0.23,12.48-0.84,18.61-2.06c6.16-1.23,12.19-2.97,18.19-4.82c1.46-0.45,2.92-0.9,4.38-1.36
			C90.1,160.19,89.69,158.65,88.71,158.96L88.71,158.96z"/>
	</g>
</g>
<g>
	<path class="st119" d="M32.01,84.06c0.66-0.39-0.09-0.57,0.38-1.17c0.13-0.17,0.31-0.28,0.49-0.39c1.54-0.87,3.47-0.83,5.13-0.23
		c1.66,0.59,3.1,1.68,4.42,2.85c3.73,3.29,6.8,7.32,9,11.78c0.57,1.15,1.08,2.33,1.52,3.53c0.39,1.05,0.11,2,0.17,3.11
		c0.14,2.51,0.86,4.95,1.08,7.45c0.13,1.43-0.2,2.87-0.53,4.27c-0.5,2.19-1.06,4.47-2.53,6.16c-0.52,0.07-0.83-0.54-0.99-1.03
		c-1.11-3.62-2.15-7.26-3.12-10.92c-0.17-0.65-0.35-1.32-0.7-1.9c-0.74-1.2-2.11-1.84-3.41-2.37c-4.84-2.01-9.36-3.56-12.31-7.9"/>
	<g>
		<path class="st118" d="M32.41,84.75c0.28-0.19,0.54-0.4,0.64-0.74c0.07-0.24-0.1-0.56-0.04-0.75c-0.04,0.13-0.01,0.1,0.09,0.04
			c0.17-0.11,0.35-0.21,0.54-0.29c0.42-0.19,0.89-0.3,1.35-0.35c1.61-0.17,3.16,0.39,4.51,1.22c2.73,1.68,5.08,4.24,7.05,6.75
			c2.13,2.7,3.9,5.72,5.2,8.9c0.32,0.78,0.62,1.49,0.61,2.34c-0.01,0.89-0.06,1.73,0.04,2.62c0.19,1.79,0.6,3.54,0.86,5.32
			c0.15,1.04,0.22,2.08,0.07,3.12c-0.14,0.98-0.39,1.96-0.62,2.92c-0.43,1.77-0.94,3.6-2.13,5.02c0.19-0.08,0.38-0.16,0.56-0.23
			c0.08,0-0.01,0.07-0.04-0.04c-0.02-0.08-0.1-0.18-0.13-0.26c-0.12-0.27-0.18-0.58-0.27-0.86c-0.19-0.63-0.38-1.26-0.57-1.89
			c-0.37-1.26-0.74-2.53-1.1-3.79c-0.36-1.27-0.71-2.54-1.05-3.81c-0.28-1.04-0.5-2.15-1.13-3.04c-1.21-1.69-3.34-2.35-5.18-3.1
			c-1.86-0.76-3.72-1.53-5.46-2.53c-1.94-1.12-3.65-2.55-4.92-4.4c-0.58-0.84-1.96-0.04-1.37,0.8c1.54,2.23,3.6,3.95,5.97,5.24
			c2.36,1.29,4.9,2.15,7.34,3.25c1.29,0.59,2.36,1.3,2.81,2.71c0.52,1.63,0.9,3.31,1.36,4.95c0.48,1.7,0.97,3.4,1.48,5.1
			c0.33,1.09,0.61,3.2,2.11,3.27c0.71,0.03,1.1-0.68,1.44-1.21c0.41-0.62,0.72-1.3,0.99-1.99c0.54-1.37,0.85-2.82,1.17-4.26
			c0.38-1.71,0.49-3.31,0.25-5.04c-0.23-1.68-0.63-3.33-0.83-5.01c-0.09-0.75-0.12-1.49-0.09-2.24c0.04-0.77,0.03-1.52-0.21-2.25
			c-0.51-1.54-1.24-3.05-1.99-4.48c-1.39-2.68-3.1-5.18-5.07-7.47c-1.09-1.27-2.26-2.46-3.51-3.57c-1.26-1.12-2.61-2.19-4.16-2.88
			c-1.51-0.67-3.18-0.97-4.82-0.64c-0.75,0.15-1.64,0.46-2.21,0.99c-0.24,0.22-0.43,0.51-0.51,0.83c-0.03,0.12-0.04,0.25-0.03,0.37
			c0.01,0.1,0.03,0.2,0.05,0.31c0.04,0.22,0.09,0.12,0.13-0.3C30.77,83.95,31.56,85.33,32.41,84.75L32.41,84.75z"/>
	</g>
</g>
<g>
	<path class="st119" d="M31.82,84.18c-0.17,4.43-0.63,8.73-1.21,13.12"/>
	<g>
		<path class="st119" d="M31.24,84.18c-0.17,4.39-0.64,8.77-1.21,13.12c-0.1,0.73,1.06,0.73,1.15,0c0.57-4.36,1.04-8.73,1.21-13.12
			C32.42,83.44,31.27,83.44,31.24,84.18L31.24,84.18z"/>
	</g>
</g>
<g class="st120">
	<path class="st121" d="M52.75,101.99c0.11,0.65,0.29,2.83-0.13,3.35c-0.51,0.63,0.55,0.45-0.24,0.32
		c-3.48-0.56-7.84-1.5-10.68-3.58c-2.23-1.64-4.66-5.81-5.68-7.54c-0.56-0.95-1.25-1.7-1.79-2.6c-0.57-0.95-1.04-1.96-1.51-2.97
		c-0.8-1.72-1.63-3.55-1.47-5.44c1.74,2.3,3.48,4.61,4.95,7.1c1.24,2.1,2.32,4.38,4.16,5.99c0.8,0.7,1.71,1.25,2.63,1.77
		c1.89,1.08,3.82,2.07,5.8,2.98c0.83,0.38,1.68,0.75,2.59,0.88s1.88,0,2.62-0.54"/>
</g>
<g>
	<g>
		<path class="st20" d="M40.11,45.6c2.37-1.94,5.63-2.78,8.65-2.45c1.1,0.12,2.87,0.36,3.62,1.27c0.03,0.03,0.29,0.4,0.17,0.43
			c-0.16,0.04,0.17-0.57,0.18-0.58c0.24-0.23,1.15-0.25,0.56-0.32c0.36,0.04,0.46-0.12,0.85,0.36c0.14,0.35,0.28,0.69,0.42,1.04
			c-0.04,0.18-0.07,0.36-0.11,0.53c-0.07-0.15,2.62-0.37,3.06-0.31c1.59,0.21,3.17,0.94,4.43,1.93c1.13,0.88,2.04,1.99,2.27,3.43
			c0.31,1.96,0.11,3.93,0.63,5.87c0.95,3.57,3.77,8.07,7.99,7.84c2.05-0.11,4.15-1.53,4.66-3.59c0.53-2.14-0.55-4.12-2.14-5.5
			c-1.7-1.47-3.95-2-5.83-0.53c-1.68,1.32-2.12,3.37-2.31,5.39c-0.38,4.03,0.42,8.09,2.03,11.78c1.65,3.78,4.9,6.9,5.87,10.97
			c0.18,0.77,0.26,1.58,0.12,2.37c-0.12,0.72-0.35,1.18-0.69,1.57c-0.47,0.54-0.88,0.79-1.38,0.93c-0.36,0.1-0.3,0.05-0.83,0.05
			c0.26,0-0.01-0.06-0.02-0.06c-0.23-0.08-0.21-0.06,0.05,0.08c0.54,0.26,0.73,0.78,0.57,1.57c-0.25,0.42-0.49,0.85-0.74,1.27
			c-0.51,0.38-1.04,0.53-1.6,0.45c-0.01-0.01-0.01-0.02-0.02-0.03c0.09,0.25,0.65,0.58,0.86,0.79c0.47,0.48,0.87,0.99,1.22,1.56
			c0.68,1.11,1.18,2.38,1.31,3.66c0.1,0.94-0.07,2.35-0.6,2.8c-0.28,0.23-0.14,0.14-0.49,0.22c0.37-0.09-0.28-0.02-0.34,0.01
			c-0.26,0.14,0-0.15,0.16,0.1c0.4,0.62,0.5,1.6-0.19,2.16c-0.42,0.25-0.85,0.49-1.27,0.74c-0.49,0.15-0.91,0.1-1.24-0.16
			c-0.04-0.02-0.07-0.05-0.08-0.09c0.07-0.06,0.1,0.4,0.05,0.13c0.07,0.41,0.05,0.11,0.06,0.37c0,0.11-0.08,0.72-0.02,0.37
			c-0.22,1.2-0.99,2.26-1.48,3.36c-1.28,2.89-1.43,5.87,0.64,8.42c1.56,1.91,5.09,0.36,4.92-2.04c-0.27-3.82-3.37-6.33-7.1-6.49
			c-3.22-0.14-8.51,1.47-8.31,5.47c0.06,1.17,0.85,2.55,2.11,2.78c1.98,0.35,3.82-0.34,4.8-2.16c0.92-1.71,0.54-3.9-0.42-5.51
			c-1.26-2.12-3.75-3.9-4.88-5.6c-0.38-0.58-0.02,0.25-0.06-0.18c-0.05-0.45-0.14,0.47,0-0.3c-0.1,0.55,0.16-0.39,0.16-0.4
			c-0.18,0.44,0.3-0.48,0.28-0.44c0.67-1.11,1.47-1.96,2.28-3.05c1.92-2.58,2.97-5.9,3.85-8.97c1.87-6.51,2.38-13.42,1.49-20.13
			c-0.88-6.66-3.04-13.37-7.66-18.41c-2.33-2.55-5.27-4.51-8.52-5.68c-1.72-0.62-3.55-0.91-5.37-0.99c-1.43-0.06-3.75,0.31-4.88-0.5
			c0.34,0.34,0.69,0.69,1.03,1.03c0.23,0.35-0.31,1.84-0.15,1.88c0.17,0.04,0.77-0.18,0.97-0.2c0.79-0.08,1.59,0.04,2.36,0.19
			c1.77,0.36,3.53,0.89,5.26,1.42c2.87,0.88,5.85,1.99,8.07,4.08c2.39,2.24,3.55,5.38,4.57,8.42c1.24,3.73,2.2,7.54,3.25,11.32
			c1.05,3.77,2.45,7.37,3.69,11.06c0.46,1.36,0.86,2.77,0.65,4.22c-0.27,1.94-1.33,3.8-2.05,5.59c-1.38,3.46-2.09,7.01-3,10.6
			c-0.13,0.53-0.36,1.31-0.52,1.66c-0.14,0.3-0.31,0.63-0.51,0.89c0.21-0.27-0.48,0.54-0.45,0.42c0.04-0.16-0.08,0.06-0.08,0.06
			c0-0.05,0.23,0.21,0.33,0.19c-0.25,0.04-0.06-1.22-0.03-1.42c0.83-4.36,2.28-8.7,3.57-12.93c1.31-4.29,2.73-8.54,4.25-12.76
			c-1.85,0-3.7,0-5.56,0c1.57,4.42,0.66,9.01-0.59,13.39c-1.38,4.84-3.04,9.57-3.24,14.65c-0.06,1.56,1.37,2.88,2.88,2.88
			c1.67,0,2.74-1.32,2.88-2.88c0.2-2.24,0.28-5.08,1.59-7c0.07-0.1,0.42-0.61,0.51-0.53c0.4,0.36-0.68,0.03-0.67,0.03
			c-0.14-0.01-0.2-0.17-0.28-0.24c-0.22-0.16,0.21,0.39,0.06,0.02c0.08,0.19,0.13,0.39,0.17,0.59c-0.08-0.37,0.02,0.17,0.02,0.31
			c0,0.26-0.01,0.5-0.04,0.76c-0.16,1.55,1.44,2.88,2.88,2.88c1.69,0,2.72-1.33,2.88-2.88c0.43-4.28-3.45-8.99-7.93-6.44
			c-4.16,2.37-4.58,8.29-4.96,12.51c1.92,0,3.84,0,5.76,0c0.19-4.98,2.14-9.66,3.39-14.43c1.3-4.92,1.96-10.25,0.23-15.15
			c-0.97-2.74-4.57-2.72-5.56,0c-2.78,7.68-5.2,15.48-7.25,23.39c-0.54,2.07-1.15,4.17-0.7,6.31c0.4,1.95,1.87,3.73,3.81,4.31
			c4.19,1.25,7.35-2.65,8.44-6.18c0.51-1.64,0.75-3.36,1.17-5.02c0.47-1.89,1.05-3.75,1.74-5.57c0.7-1.86,1.65-3.66,2.18-5.58
			c0.57-2.05,0.55-4.13,0.11-6.21c-0.4-1.86-1.18-3.62-1.83-5.4c-0.71-1.91-1.32-3.86-1.89-5.82c-1.12-3.84-2.07-7.74-3.26-11.56
			c-1.11-3.56-2.34-7.27-4.6-10.28c-2.28-3.04-5.34-5.03-8.82-6.47c-3.18-1.32-6.72-2.45-10.13-2.95c-2.18-0.32-4.52-0.34-6.53,0.72
			c-1.82,0.96-3.08,3.07-2.49,5.14c1.22,4.23,7.56,2.85,10.72,3.4c3.02,0.52,5.71,2.13,7.84,4.29c4.75,4.82,6.5,12.1,6.87,18.66
			c0.21,3.66,0,7.35-0.71,10.95c-0.67,3.39-1.57,7.18-3.33,10.19c-1.55,2.64-4.22,4.71-4.38,8.09c-0.15,3.37,2.58,5.57,4.7,7.77
			c0.48,0.5,0.7,0.73,0.96,1.11c0.08,0.11,0.15,0.23,0.21,0.36c-0.18-0.36,0-0.03-0.03-0.03c-4.05,0.32,0.19,0.15,0.06,0.19
			c0.28-0.1,0.44-1.1,0.74-1.14c0.51,0,1.02,0,1.53,0c-0.1-0.02-0.21-0.04-0.31-0.06c0.7,0.93,1.41,1.85,2.11,2.78
			c-0.08-1.7-0.17,1.03-0.46,0.92c0.13,0.05,0.72-0.25,0.87-0.3c0.69-0.21,1.41-0.41,2.15-0.33c0.38,0.04,0.71,0.11,0.98,0.32
			c-0.1-0.08,0.38,0.31,0.24,0.22c0.13,0.09,0.14,0.46,0.12,0.2c1.64-0.68,3.28-1.36,4.92-2.04c0.18,0.22,0.02-0.46,0.01-0.4
			c0.08-0.48,0.22-0.95,0.41-1.4c0.66-1.56,1.64-2.99,1.95-4.68c0.59-3.15-1-7.54-4.8-7.57c-1.95-0.01-3.5,1.56-3.57,3.49
			c-0.07,1.81,0.94,3.38,2.49,4.27c3.02,1.73,7,0.31,8.75-2.54c1.68-2.75,1.52-6.36,0.44-9.3c-1.09-2.96-3.31-6.48-6.41-7.62
			c-1.75-0.65-3.86-0.23-4.86,1.48c-1.02,1.74-0.37,3.83,1.1,5.06c2.73,2.29,6.74,1.4,9.24-0.75c2.65-2.27,3.37-5.77,2.85-9.1
			c-0.52-3.35-2.37-6.21-4.18-9c-1.78-2.75-3.22-5.57-3.65-8.86c-0.17-1.31-0.18-2.65-0.09-3.96c0.02-0.27,0.15-1.43,0.24-1.39
			c0.09,0.04-1.97,1.01-1.71,0.31c0.04-0.1,0.29,0.52,0.47,0.51c-0.46,0.01,0.38-1.23,0.42-1.35c0.1-0.33,0.72,0.55,0-0.17
			c-1.02-1.01-1.68-2.28-2.02-3.69c-0.36-1.47-0.23-3.02-0.41-4.52c-0.21-1.75-0.75-3.38-1.79-4.82c-1.98-2.72-5.05-4.74-8.32-5.55
			c-3.05-0.75-7.05-0.64-9.44,1.69c-1.52,1.49-2.11,3.86-0.92,5.74c1.06,1.68,3.25,2.45,5.15,1.97c4.34-1.1,4.53-6.62,1.72-9.37
			c-2.48-2.44-6.76-3.11-10.09-2.84c-3.82,0.31-7.24,1.73-10.2,4.15c-1.21,0.99-1.02,3.05,0,4.07C37.23,46.79,38.9,46.58,40.11,45.6
			L40.11,45.6z"/>
	</g>
</g>
<g>
	<g>
		<path class="st20" d="M65.26,49.45c1.98,0.6,3.35,2.08,3.94,4.04c0.44,1.48,0.79,3.26,2.2,4.15c1.49,0.95,3.68,0.4,3.74-1.61
			c0.05-1.89-1.56-3.45-3.09-4.29c-1.62-0.89-3.18,0.16-3.14,1.98c0.04,1.73,1.34,3.2,2.54,4.29c0.62,0.56,1.27,1.07,1.88,1.64
			c0.31,0.29,0.67,0.6,0.91,0.95c0.5,0.73,0.31,0.83-0.34,1.25c-1.49,0.96-2.49,2.39-2.43,4.23c0.06,1.77,1.2,3.29,2.82,3.95
			c1.39,0.57,3.9,0.58,4.38-1.23c0.49-1.84-1.69-2.72-2.89-1.46c-1.39,1.45-0.65,3.39-0.4,5.11c0.09,0.61,0.07,2.2-0.96,1.46
			c-0.98-0.71-0.56-2.63-0.33-3.61c0.45-1.9,2.02-3.92,1.23-5.93c-0.64-1.64-2.79-2.05-3.55-0.26c-0.78,1.83,0.11,4.28,0.91,5.95
			c1.12,2.35,2.86,4.33,4.03,6.64c0.55,1.1,1.2,2.6,0.91,3.86c-0.06,0.25-0.59,1.4-1.07,0.87c-0.44-0.49,0.63-0.81,0.85-0.79
			c1.31,0.1,1.81,1.82,1.89,2.89c0.1,1.41-0.49,2.62-1.13,3.83c-1.11,2.12-1.95,4.29-0.9,6.6c0.61,1.35,2.6,0.18,1.99-1.16
			c-1.09-2.41,1.76-5.19,2.21-7.49c0.43-2.18-0.1-4.93-2.02-6.29c-1.64-1.16-4.28-0.88-5.04,1.19c-0.68,1.84,0.64,3.81,2.66,3.59
			c2.48-0.26,3.14-2.9,2.79-4.98c-0.45-2.67-2.09-4.91-3.55-7.11c-0.74-1.11-1.47-2.26-1.94-3.52c-0.23-0.61-0.41-1.25-0.49-1.89
			c-0.01-0.12-0.02-1.12-0.03-1.12c-0.53-0.22-0.7,0.97-0.76,1.19c-0.34,1.21-0.98,2.29-1.25,3.53c-0.26,1.2-0.42,2.49-0.13,3.7
			c0.51,2.17,3.24,3.86,5.11,2.04c0.8-0.78,1-1.94,0.91-3.01c-0.04-0.55-0.17-1.09-0.29-1.63c-0.08-0.38-0.09-1.88-0.33-1.98
			c-0.23-0.18-0.46-0.35-0.69-0.53c0.12-0.43-0.01-0.56-0.38-0.41c-0.17,0.01-0.34-0.01-0.51-0.06c-0.4-0.09-0.77-0.28-1.07-0.56
			c-0.52-0.49-0.76-1.18-0.65-1.89c0.26-1.65,1.99-1.75,2.8-2.98c1.77-2.71-2.7-5.29-4.21-6.87c-0.45-0.48-0.95-1.05-1.1-1.71
			c-0.06-0.13-0.08-0.26-0.06-0.4c0.05-0.25-0.06-0.21-0.33,0.14c0.03,0.14,0.97,0.67,1.11,0.8c0.33,0.3,1.21,1.86,0.39,0.93
			c-0.43-0.48-0.57-1.22-0.75-1.82c-0.9-3.06-2.58-5.45-5.76-6.41C64.45,46.8,63.84,49.02,65.26,49.45L65.26,49.45z"/>
	</g>
</g>
<g>
	<g>
		<path class="st20" d="M73.16,62.92c0.53,0.58,0.66,0.74,1.03,1.36c0.04,0.07,0.17,0.35,0.08,0.12c0.06,0.16,0.11,0.33,0.15,0.49
			c-0.05-0.23,0.02,0.07,0.02,0.15c0.01,0.18,0.01,0.36,0,0.53c-0.04,1.6-0.41,3.17,0.16,4.74c0.16,0.44,0.36,0.88,0.57,1.3
			c0.03,0.05,0.19,0.41,0.15,0.32c-0.07-0.17,0.08,0.45,0.04,0.12c-0.04-0.25-0.01,0.19-0.02,0.24c-0.01,0.36,0.09-0.32-0.01,0.03
			c-0.08,0.3-0.17,0.59-0.27,0.88c-0.5,1.33-1.09,2.61-0.97,4.07c0.11,1.28,1.02,2.39,2.39,2.39c1.21,0,2.49-1.09,2.39-2.39
			c-0.01-0.15-0.02-0.3-0.02-0.45c-0.02-0.62-0.06,0.18,0.02-0.15c0.09-0.34,0.19-0.67,0.32-1c0.24-0.62,0.52-1.22,0.7-1.86
			c0.26-0.93,0.31-1.87,0.12-2.82c-0.1-0.5-0.31-0.97-0.53-1.43c-0.07-0.16-0.16-0.32-0.23-0.48c-0.04-0.08-0.08-0.16-0.12-0.24
			c0.06,0.12,0.06,0.1,0-0.05c-0.12-0.45-0.08-0.21-0.08-0.67c0-0.4,0.04-0.8,0.07-1.2c0.07-0.81,0.14-1.59,0.05-2.41
			c-0.23-1.99-1.3-3.53-2.62-4.97c-0.87-0.95-2.49-0.88-3.38,0C72.21,60.49,72.28,61.97,73.16,62.92L73.16,62.92z"/>
	</g>
</g>
<g class="st120">
	<path class="st121" d="M52.84,103.49c0.11,0.65,0.29,2.83-0.13,3.35c-0.51,0.63-0.31,0.5-1.11,0.37c-3.48-0.56-6.98-1.55-9.81-3.64
		c-2.23-1.64-4.66-5.81-5.68-7.54c-0.56-0.95-1.25-1.7-1.79-2.6c-0.57-0.95-1.04-1.96-1.51-2.97c-0.8-1.72-1.16-4.39-1-6.28
		c1.74,2.3,3.64,4.32,5.11,6.81c1.24,2.1,2.36,4.49,4.19,6.1c0.8,0.7,1.75,1.41,2.67,1.93c1.89,1.08,3.13,2.94,5.1,3.84
		c0.83,0.38,1.68,0.75,2.59,0.88c0.9,0.13,1.88,0,2.62-0.54"/>
</g>
<g>
	<path class="st119" d="M48.23,45.56c8.79,1.19,14.2,7.15,16.68,15.67c1.27,4.34,1.29,8.93,1.31,13.46
		c0.01,1.87,0.01,3.75,0.02,5.62c0.01,1.48,0.01,2.98-0.46,4.39c-0.49,1.48-1.45,2.74-2.36,4c-2.11,2.92-4,6.03-5.34,9.38
		c-0.51,1.27-0.96,2.61-1.92,3.59c-1.23,1.26-3.13,1.7-4.88,1.48s-3.37-1.02-4.87-1.94c-4.97-3.04-9.02-7.54-11.52-12.8
		c-0.61-1.28-1.16-2.64-2.21-3.58c-0.6-0.54-1.34-0.91-2.01-1.37c-2.67-1.82-4.19-4.92-5.1-8.02c-2.14-7.26-1.42-15.55,2.89-21.78
		S40.88,43.73,48.23,45.56"/>
	<g>
		<path class="st122" d="M48.08,46.12c4.12,0.57,7.94,2.31,10.84,5.33c3.04,3.16,4.94,7.38,5.87,11.63
			c0.63,2.89,0.79,5.85,0.84,8.79c0.05,3,0.05,6.01,0.05,9.02c0,1.5-0.09,3.01-0.73,4.39c-0.56,1.19-1.38,2.24-2.14,3.3
			c-1.66,2.32-3.18,4.75-4.4,7.34c-1.04,2.21-1.58,5.28-4.09,6.3c-2.6,1.06-5.37-0.15-7.59-1.51c-4.31-2.64-7.92-6.4-10.39-10.81
			c-1.23-2.2-1.93-4.72-4.13-6.17c-1.08-0.71-2.1-1.36-2.96-2.34c-0.82-0.93-1.46-2.01-1.99-3.13c-2.12-4.5-2.71-9.95-1.95-14.84
			c0.76-4.87,2.94-9.5,6.64-12.82c3.46-3.1,8.08-5.03,12.76-4.93C45.84,45.7,46.97,45.85,48.08,46.12c0.72,0.17,1.03-0.94,0.31-1.11
			c-4.78-1.16-9.84-0.13-14.02,2.38c-4.39,2.64-7.57,6.8-9.2,11.65c-1.7,5.06-1.71,10.65-0.35,15.79c0.65,2.48,1.63,4.93,3.24,6.95
			c0.79,0.99,1.74,1.81,2.81,2.49c0.6,0.38,1.22,0.74,1.72,1.26c0.5,0.52,0.85,1.17,1.18,1.81c0.6,1.2,1.14,2.43,1.83,3.6
			c0.67,1.15,1.42,2.25,2.23,3.3c1.61,2.09,3.48,3.96,5.56,5.58c2.14,1.66,4.62,3.35,7.33,3.84c2.5,0.45,5.15-0.27,6.59-2.48
			c0.77-1.17,1.16-2.56,1.72-3.84c0.6-1.37,1.3-2.71,2.06-4c0.76-1.3,1.58-2.56,2.45-3.78c0.82-1.16,1.73-2.29,2.36-3.57
			c1.34-2.77,0.93-6.09,0.92-9.07c-0.01-3.15,0.03-6.32-0.23-9.46c-0.42-5.04-1.85-10.09-4.78-14.27
			c-2.45-3.51-5.91-6.13-10.01-7.41c-1.11-0.35-2.25-0.58-3.4-0.74C47.66,44.9,47.34,46.01,48.08,46.12L48.08,46.12z"/>
	</g>
</g>
<g>
	<path class="st20" d="M40.03,47.06c-1.93-3.21-5.73-5.12-9.47-4.98s-7.3,2.24-9.45,5.3s-2.9,7.01-2.29,10.71
		c0.22,1.35,0.68,2.74,1.73,3.61c1.06,0.86,2.86,0.91,3.64-0.21c0.73-1.05,0.18-2.65-0.93-3.3s-2.54-0.51-3.7,0.03
		c-1.72,0.79-3.06,2.5-3.14,4.39c-0.1,2.34,1.62,4.34,3.44,5.82c1.82,1.47,3.9,2.76,5.07,4.78c0.53,0.92,0.85,2.03,0.57,3.06
		c-0.32,1.18-1.36,2.03-2.48,2.52c-2.15,0.95-4.76,0.76-6.75-0.47c-0.39-0.24-0.79-0.61-0.72-1.06c0.08-0.5,0.78-0.71,1.22-0.45
		c0.44,0.26,0.62,0.81,0.63,1.32c0.02,1.21-0.8,2.35-1.88,2.9s-2.38,0.58-3.55,0.28c1.47,1.3,2.01,3.4,1.95,5.36
		c-0.05,1.96-0.6,3.87-0.95,5.81c-0.23,1.29-0.37,2.65,0.05,3.89s1.56,2.32,2.87,2.31c0.34,0,0.75-0.16,0.76-0.5
		c-0.07-0.3-0.52-0.37-0.76-0.17c-0.24,0.2-0.31,0.53-0.34,0.84c-0.17,2.12,1.16,4.03,2.42,5.74c1.06,1.43,2.12,2.87,3.18,4.3
		c0.4,0.53,0.82,1.1,1.45,1.33c0.88,0.34,1.91-0.1,2.53-0.8s0.93-1.63,1.2-2.54c1.17,0.38,2.34,0.77,3.51,1.15
		c0.69,0.23,1.48,0.44,2.1,0.08c0.43-0.25,0.67-0.71,0.86-1.16c0.51-1.24,0.7-2.66,0.23-3.91c-0.47-1.25-1.7-2.27-3.04-2.21
		c0.17,0.78,1.04,1.26,1.84,1.22s1.52-0.49,2.14-1.01c2.83-2.38,4.01-6.55,2.83-10.05c-1.47-4.38-6.17-7.71-5.84-12.31
		c0.14-1.97,1.32-3.84,3.04-4.83c1.72-0.98,3.93-1.05,5.7-0.17c-1.93-0.73-3.22-2.86-2.98-4.91c0.24-2.05,2-3.82,4.04-4.08
		c-2.71-2.59-3-7.31-0.63-10.22c0.91-1.12,2.13-1.95,3.09-3.04s1.65-2.59,1.2-3.96c-0.28-0.85-0.96-1.51-1.63-2.11
		c-0.96-0.85-2.14-1.68-3.4-1.49c-1.27,0.19-2.12,2.07-1.06,2.79c0.89,0.61,2.23-0.4,2.12-1.47s-1.26-1.82-2.33-1.78
		c-1.08,0.04-2.05,0.67-2.82,1.42"/>
	<g>
		<path class="st20" d="M40.53,46.77c-1.62-2.64-4.37-4.47-7.4-5.05c-3.03-0.59-6.17,0.11-8.76,1.77c-2.71,1.73-4.67,4.4-5.63,7.46
			c-0.49,1.57-0.72,3.23-0.7,4.87c0.02,1.59,0.23,3.28,0.92,4.72c0.62,1.29,1.75,2.26,3.2,2.37c1.24,0.09,2.5-0.58,2.85-1.83
			c0.35-1.28-0.34-2.72-1.46-3.39c-1.35-0.81-3.1-0.57-4.45,0.1c-2.81,1.41-4.01,4.65-2.66,7.49c1.44,3.03,4.66,4.42,6.87,6.75
			c1.3,1.36,2.5,3.57,0.95,5.21c-1.23,1.3-3.27,1.72-4.99,1.52c-0.94-0.11-1.94-0.42-2.73-0.95c-0.09-0.06-0.43-0.25-0.42-0.38
			c0.01-0.19,0.17-0.2,0.33-0.13c0.39,0.17,0.37,0.88,0.32,1.21c-0.35,2.17-2.87,2.68-4.67,2.24c-0.54-0.13-1,0.56-0.56,0.96
			c2.65,2.44,1.72,6.37,1.08,9.45c-0.56,2.69-1.08,6.76,2.24,7.92c0.58,0.2,1.32,0.28,1.87-0.07c0.5-0.33,0.66-1.03,0.17-1.44
			c-0.41-0.35-1.04-0.32-1.44,0.03c-0.57,0.5-0.56,1.4-0.5,2.09c0.15,1.6,0.96,3.03,1.86,4.32c1.04,1.49,2.15,2.93,3.23,4.39
			c0.94,1.27,1.93,2.86,3.76,2.45c1.81-0.41,2.56-2.21,3.04-3.81c-0.24,0.13-0.47,0.27-0.71,0.4c0.86,0.28,1.72,0.56,2.57,0.85
			c0.73,0.24,1.48,0.56,2.26,0.6c1.55,0.08,2.26-1.27,2.62-2.58c0.38-1.38,0.36-2.97-0.43-4.21c-0.7-1.11-1.88-1.85-3.21-1.84
			c-0.37,0-0.66,0.37-0.56,0.73c0.36,1.27,1.71,1.84,2.94,1.57c1.34-0.3,2.48-1.41,3.3-2.46c1.68-2.15,2.43-4.96,2.05-7.67
			c-0.39-2.71-2.05-4.94-3.56-7.13c-1.44-2.09-3.07-4.53-2.54-7.2c0.7-3.5,4.56-5.45,7.79-3.92c0.15-0.35,0.3-0.7,0.44-1.05
			c-1.68-0.68-2.81-2.57-2.55-4.37c0.26-1.83,1.82-3.23,3.61-3.5c0.44-0.07,0.54-0.69,0.25-0.96c-2.06-2.02-2.64-5.29-1.51-7.93
			c1.28-2.99,5.42-4.32,5.47-7.93c0.03-1.67-1.2-2.89-2.41-3.86c-1.08-0.86-2.63-1.74-4.02-1.07c-0.99,0.48-1.71,1.76-1.33,2.84
			c0.46,1.29,2.07,1.33,2.97,0.48c1.22-1.16,0.61-2.95-0.78-3.65c-1.68-0.84-3.44,0.08-4.68,1.26c-0.54,0.51,0.28,1.33,0.81,0.81
			c0.88-0.84,2.22-1.7,3.43-1c0.42,0.24,0.84,0.72,0.72,1.24c-0.1,0.42-0.65,0.93-1.11,0.75c-0.89-0.35,0.11-1.64,0.66-1.78
			c1.25-0.33,2.59,0.92,3.4,1.71c1.01,0.96,1.46,2.08,0.91,3.43c-0.52,1.28-1.63,2.18-2.63,3.08c-1.75,1.59-2.91,3.43-3.12,5.83
			c-0.2,2.41,0.64,4.89,2.38,6.59c0.08-0.32,0.17-0.64,0.25-0.96c-2.3,0.34-4.21,2.31-4.46,4.63c-0.25,2.36,1.24,4.59,3.4,5.46
			c0.6,0.24,1.03-0.77,0.44-1.05c-2.56-1.22-5.71-0.79-7.71,1.28c-1.86,1.92-2.34,4.69-1.47,7.18c0.85,2.46,2.61,4.46,3.98,6.62
			c1.47,2.32,2.28,4.83,1.65,7.58c-0.35,1.49-1.06,2.91-2.1,4.04c-0.53,0.57-1.16,1.16-1.9,1.44c-0.69,0.26-1.67,0.18-1.9-0.65
			c-0.19,0.24-0.37,0.49-0.56,0.73c1.04-0.01,1.94,0.66,2.39,1.59c0.48,1,0.39,2.18,0.07,3.21c-0.14,0.47-0.35,1.16-0.81,1.42
			c-0.45,0.25-1.02,0.06-1.47-0.08c-1.24-0.38-2.47-0.81-3.7-1.21c-0.3-0.1-0.62,0.12-0.71,0.4c-0.36,1.2-1.02,3.17-2.63,3.03
			c-0.67-0.06-1.12-0.67-1.49-1.16c-0.51-0.68-1.01-1.37-1.52-2.05c-0.94-1.27-1.93-2.51-2.77-3.84c-0.39-0.62-0.75-1.26-0.98-1.96
			c-0.12-0.38-0.22-0.77-0.25-1.16c-0.01-0.17-0.02-0.35-0.01-0.52c0.01-0.17,0.11-0.44,0.04-0.59c-0.02-0.15-0.04-0.3-0.06-0.44
			c-0.05,0.22-0.8-0.01-0.91-0.05c-0.35-0.14-0.66-0.36-0.91-0.63c-0.58-0.61-0.86-1.42-0.93-2.24c-0.15-1.8,0.43-3.61,0.77-5.36
			c0.59-3.02,0.72-6.57-1.74-8.84c-0.19,0.32-0.37,0.64-0.56,0.96c1.61,0.39,3.4,0.26,4.72-0.83c1.05-0.87,1.76-2.39,1.29-3.74
			c-0.21-0.59-0.68-1.09-1.32-1.17c-0.56-0.07-1.16,0.18-1.42,0.7c-0.75,1.5,1.64,2.46,2.67,2.78c2.68,0.82,6.68,0.23,8.05-2.55
			c1.58-3.21-1.82-6.17-4.06-7.9c-2.28-1.75-5.69-4.31-4.53-7.65c0.5-1.45,1.8-2.61,3.27-3.03c1.43-0.4,3.58,0.12,3.47,1.98
			c-0.09,1.51-2.02,1.54-2.97,0.83c-1.25-0.93-1.57-2.79-1.71-4.24c-0.33-3.4,0.49-6.94,2.57-9.69c2.08-2.76,5.43-4.64,8.91-4.71
			c3.49-0.07,6.95,1.71,8.79,4.7C39.92,47.99,40.92,47.41,40.53,46.77L40.53,46.77z"/>
	</g>
</g>
<g>
	<g>
		<path class="st20" d="M24.07,85.64c2.71-1.92,4.41-4.65,4.83-7.95c0.37-2.95-0.83-6.01-3.26-7.75c-1.53-1.1-3.83-1.44-5.52-0.51
			c-1.78,0.98-2.44,2.79-2.65,4.7c-0.2,1.75,0.17,3.48,0.88,5.07c0.98,2.2,3.66,3.23,5.68,1.68c2.48-1.92,3.45-5.45,2.5-8.42
			c-0.95-2.99-3.47-5.21-6.43-6.13c-2.14-0.66-4.12,0.03-5.43,1.8c-0.98,1.32-1.34,3.2-1.23,4.82c0.13,1.82,0.71,3.51,1.89,4.92
			c1.25,1.51,3.36,2.19,5.25,1.67c1.95-0.53,3.36-2.06,4.47-3.66c1.05-1.52,1.76-3.42,1.72-5.28c-0.04-1.89-0.76-3.83-2.22-5.08
			c-1.55-1.32-3.82-1.97-5.78-1.23c-1.4,0.53-2.52,1.97-2.01,3.54c0.44,1.37,2.04,2.58,3.54,2.01c0.14-0.06,0.28-0.11,0.43-0.14
			c-0.4,0.04-0.43,0.05-0.1,0.04c-0.95-0.17,0.63,0.35-0.15-0.07c0.14,0.07,0.27,0.14,0.39,0.23c-0.28-0.22-0.3-0.23-0.06-0.01
			c-0.2-0.29-0.2-0.3-0.02-0.02c0.15,0.29,0.16,0.28,0.03-0.05c0.07,0.16,0.23,1.11,0.17,0.4c0.03,0.32,0.03,0.65,0,0.97
			c0.07-0.74-0.14,0.35-0.18,0.51c-0.12,0.32-0.13,0.34-0.03,0.07c-0.08,0.17-0.17,0.33-0.26,0.49c-0.18,0.32-0.39,0.63-0.6,0.93
			c0.3-0.4-0.34,0.37-0.41,0.44c-0.09,0.09-0.19,0.18-0.29,0.27c-0.15,0.13-0.13,0.12,0.06-0.05c-0.3,0.16-0.29,0.18,0.01,0.05
			c-0.33,0.09-0.31,0.1,0.05,0.05c0.34,0.08,0.36,0.09,0.05,0.01c0.34,0.16,0.37,0.16,0.09,0c0.29,0.22,0.31,0.23,0.08,0.01
			c0.21,0.29,0.22,0.3,0.04,0.03c-0.08-0.13-0.16-0.27-0.22-0.4c0.12,0.31,0.12,0.29,0-0.04c-0.03-0.13-0.2-1.17-0.16-0.6
			c-0.03-0.37-0.04-0.75,0.02-1.11c-0.08,0.57,0.15-0.41,0.19-0.53c-0.16,0.35-0.16,0.38-0.01,0.09c0.18-0.27,0.16-0.25-0.06,0.07
			c-0.08,0.07-1.09,0.59-1.13,0.32c0,0.03,0.83,0.26,0.91,0.3c-0.47-0.19-0.06-0.01,0.16,0.11c0.27,0.15,0.54,0.32,0.79,0.51
			c-0.56-0.41,0.2,0.22,0.29,0.32c0.11,0.11,0.21,0.23,0.31,0.35c-0.21-0.28-0.22-0.29-0.04-0.03c0.07,0.13,0.5,1,0.24,0.34
			c0.11,0.28,0.18,0.57,0.25,0.86c0.06,0.33,0.05,0.3-0.01-0.1c0.01,0.15,0.02,0.3,0.01,0.45c0,0.15-0.01,0.3-0.02,0.45
			c0.06-0.39,0.06-0.43,0-0.1c-0.05,0.17-0.4,1.01-0.07,0.37c-0.07,0.15-0.6,0.91-0.14,0.35c-0.09,0.11-0.19,0.22-0.3,0.33
			c-0.51,0.44-0.15,0.31,1.07-0.4c0.48,0.13,0.97,0.26,1.45,0.39c0.06,0.03,0.65,0.54,0.37,0.37c-0.06-0.13-0.07-0.13-0.01,0
			c0.07,0.18,0.06,0.12-0.05-0.17c-0.05-0.17-0.11-0.35-0.15-0.53c0,0-0.12-0.76-0.09-0.42c0.04,0.36-0.01-0.37-0.01-0.44
			c0-0.23,0.02-0.46,0.03-0.68c0.03-0.43-0.15,0.49,0.04-0.13c0.03-0.08,0.15-0.35,0.13-0.43c0.14,0.49-0.78,0.74-1.05,0.81
			c-0.08-0.02-0.17-0.04-0.25-0.05c0.12,0.02,0.24,0.05,0.35,0.09c0.35,0.05-0.58-0.27-0.02,0c0.34,0.17,0.06-0.06-0.08-0.1
			c0.16,0.05,0.23,0.29,0.37,0.36c0.23,0.11-0.23-0.42,0-0.01c0.08,0.14,0.16,0.34,0.27,0.46c0.22,0.26-0.13-0.43-0.03-0.1
			c0.06,0.17,0.12,0.34,0.17,0.52c0.05,0.18,0.08,0.36,0.12,0.53c0.1,0.37-0.02-0.68-0.01-0.01c0.01,0.33,0,0.66-0.02,0.99
			c-0.02,0.34,0.13-0.45-0.03,0.08c-0.06,0.2-0.09,0.4-0.15,0.59c-0.06,0.2-0.13,0.39-0.19,0.58c0.08-0.25,0.13-0.27,0-0.01
			c-0.19,0.37-0.4,0.71-0.61,1.06c-0.27,0.45,0.15-0.12-0.07,0.1c-0.14,0.14-0.27,0.31-0.41,0.45c-0.12,0.12-0.24,0.22-0.36,0.34
			c-0.56,0.53,0.45-0.3-0.19,0.15c-1.23,0.87-1.93,2.56-1.03,3.94C20.92,85.83,22.75,86.57,24.07,85.64L24.07,85.64z"/>
	</g>
</g>
<g>
	<g>
		<path class="st20" d="M34.23,55.56c0.47,2.28,2.39,3.96,2.75,6.23c0.14,0.91,0.03,1.89-0.3,2.75c-0.04,0.11-0.59,0.99-0.56,1.03
			c-0.03-0.05,0.13-0.07,0.14-0.06c0.12-0.01,0.24-0.01,0.37-0.01c0.63-0.08,1.08,0.27,1.36,1.05c0,0.51,0,1.02,0,1.53
			c0.02-0.07,0.05-0.15,0.07-0.22c-0.25,0.42-0.49,0.85-0.74,1.27c-0.6,0.58-1.19,0.74-1.75,0.48c0.22,0.11,0.44,0.24,0.65,0.37
			c0.4,0.27,0.24,0.14,0.6,0.46c0.3,0.26,0.52,0.6,0.78,0.88c0.07,0.12,0.14,0.25,0.21,0.37c-0.11-0.24-0.09-0.49,0.07-0.72
			c-0.03-0.27,0.69-0.17-0.1-0.09c-0.56,0.06,0.09,0.09-0.65,0.06c-1.01-0.04-2.02-0.12-3.03-0.01c-4.65,0.5-7.61,5.32-5.69,9.67
			c0.98,2.23,3.42,3.96,5.84,2.58c2.14-1.23,2.23-4.4,0.5-5.99c-2.02-1.86-5.25-0.9-6.54,1.34c-1.05,1.83-1.29,4.26-1.77,6.29
			c-0.84,3.61,4.71,5.15,5.56,1.53c0.25-1.06,0.5-2.12,0.74-3.18c0.1-0.42,0.25-0.88,0.31-1.3c0.13-1.04,0.1,0.19-0.64,0.12
			c-0.48-0.13-0.97-0.26-1.45-0.39c0.05-1.1,0.11-2.2,0.16-3.29c0.48-0.13,0.97-0.26,1.45-0.39c-0.11,0-0.22,0-0.33-0.01
			c0.48,0.13,0.97,0.26,1.45,0.39c0.08,0.03-0.03,0.14-0.03,0.07c0.03-0.25-0.16-0.5-0.12-0.78c0.05-0.36,0.26-0.63,0.57-0.8
			c0.55-0.29,1.48-0.14,2.13-0.11c0.97,0.04,1.94,0.03,2.89-0.2c1.95-0.46,3.72-1.88,4.21-3.87c0.57-2.29-0.74-4.55-2.34-6.1
			c-1.32-1.28-3.11-2.5-5-2.56c-2.66-0.08-4.58,2.7-3.21,5.1c1.13,1.99,3.66,2.64,5.69,1.75c1.89-0.83,2.98-2.68,3.67-4.54
			c0.77-2.06,0.81-4.48,0.22-6.59c-0.56-2.02-2.19-3.62-2.6-5.64c-0.31-1.52-2.12-2.4-3.54-2.01
			C34.66,52.45,33.92,54.03,34.23,55.56L34.23,55.56z"/>
	</g>
</g>
<g>
	<g>
		<path class="st20" d="M51.4,49.06c-2.1-0.66-4.26-0.78-6.43-0.44c-1.14,0.18-2.22,0.53-3.28,0.99c-0.5,0.22-0.97,0.46-1.44,0.74
			c-0.22,0.13-0.84,0.37-0.98,0.6C39.21,50.98,39.15,51,39.09,51c0.45,0.77,0.73,0.97,0.83,0.61c0.11-0.1,0.13-1.24,0.18-1.45
			c0.2-0.85,0.51-1.77,1.07-2.47c1.12-1.38,2.06,0.06,2.79,1.1c1.18,1.66,2.5,3.38,4.59,3.87c2.37,0.56,4.62-0.86,4.95-3.3
			c0.3-2.2-0.97-4.13-2.72-5.33c-1.9-1.31-4.24-1.34-6.4-1.9c-2.88-0.76-4.05,3.57-1.23,4.44c2.13,0.66,3.49,2.86,4.81,4.52
			c0.82,1.03,1.69,2.15,3.02,2.53c1.6,0.46,2.99-0.42,4.48-0.83c1.2-0.33,2.46-0.45,3.6,0.13c1.13,0.58,2.07,1.62,2.95,2.5
			c2.08,2.09,3.87,4.39,5.41,6.9c1.21-0.93,2.41-1.86,3.62-2.79c-4.65-5.67-10.43-14.14-18.77-13.56c0.39,1.43,0.78,2.86,1.16,4.29
			c-0.17,0.07,0.73,0.18,0.85,0.21c0.4,0.09,0.79,0.19,1.18,0.3c0.92,0.26,1.82,0.58,2.68,0.99c1.73,0.82,3.33,1.85,4.76,3.12
			c1.86,1.65,5.13-0.49,3.62-2.79c-1.78-2.7-4.56-4.62-7.82-4.94c-1.57-0.15-3.23,0.2-4.53,1.11c-0.76,0.53-1.37,1.19-1.9,1.94
			c-0.42,0.58-0.65,1.28-1.08,1.85c0.28-0.28,0.55-0.55,0.83-0.83c-0.08,0.04-0.16,0.08-0.24,0.12c0.59-0.08,1.18-0.15,1.78-0.23
			c-0.45-0.07-1.03-0.7-1.41-0.94c-0.57-0.37-1.15-0.71-1.75-1.02c-1.3-0.68-2.68-1.26-4.1-1.64c-2.73-0.74-5.66-0.78-8.33,0.18
			c-1.17,0.42-1.96,1.57-1.61,2.83c0.31,1.13,1.66,2.03,2.83,1.61c2.15-0.78,4.29-0.7,6.46-0.02c1.1,0.34,2.14,0.83,3.14,1.4
			c1.09,0.63,2.15,1.71,3.37,2.01c1.56,0.39,2.71-0.52,3.4-1.82c0.43-0.82,0.89-1.7,1.87-1.94c1.95-0.47,4.11,1.12,5.11,2.65
			c1.21-0.93,2.41-1.86,3.62-2.79c-2.06-1.83-4.35-3.3-6.89-4.37c-2.55-1.07-5.49-2.11-8.16-0.97c-2.11,0.9-1.03,4.45,1.16,4.29
			c3.36-0.24,6.05,1.71,8.32,3.97c2.58,2.57,4.88,5.42,7.18,8.24c1.67,2.04,4.97-0.59,3.62-2.79c-1.69-2.77-3.69-5.37-5.97-7.68
			c-2.24-2.27-4.64-4.35-8-4.41c-1.59-0.03-3.15,0.37-4.63,0.94c-0.17,0.08-0.35,0.15-0.53,0.21c-0.31,0.06-0.24,0.14,0.19,0.23
			c-0.14-0.15-0.28-0.3-0.41-0.46c-0.44-0.51-0.85-1.04-1.27-1.56c-1.76-2.22-3.6-4.26-6.39-5.13c-0.41,1.48-0.82,2.96-1.23,4.44
			c1.61,0.42,4.35,0.28,5.51,1.66c0.09,0.1,0.22,0.46,0.29,0.49c0.05,0.02,0.73-0.33,0.58-0.55c-0.17-0.26-0.71-0.55-0.93-0.81
			c-0.2-0.23-0.38-0.48-0.55-0.73c-1.19-1.69-2.52-3.44-4.62-4.01c-2.26-0.62-4.44,0.47-5.84,2.23c-2.15,2.72-4.28,10.5,1.33,10.75
			c2.12,0.1,3.58-1.51,5.49-2.12c1.92-0.61,3.84-0.57,5.75,0.03C53.01,54.4,54.22,49.95,51.4,49.06L51.4,49.06z"/>
	</g>
</g>
<g>
	<g>
		<path class="st20" d="M53.28,52.68c-2.2-1.56-4.65-2.97-7.46-2.64c-1.56,0.18-2.97,0.74-4.37,1.44c-1.21,0.61-2.45,1.24-3.3,2.33
			c-0.84,1.09-1.39,2.52-1.81,3.82c-0.44,1.37-0.72,3.14,0.04,4.45c1.11,1.9,3.47,1.64,4.83,0.18c0.87-0.93,1.41-2.1,1.71-3.33
			c0.27-1.12,0.33-2.28,0.62-3.39c0.07-0.28,0.17-0.55,0.26-0.83c0.08-0.25-0.03,0.08-0.05,0.11c0.09-0.16,0.18-0.33,0.26-0.49
			c0.02-0.04,0.18-0.31,0.03-0.07c-0.17,0.26,0.12-0.13,0.17-0.18c0.26-0.29,0.04-0.04-0.05,0.02c0.16-0.1,0.32-0.19,0.48-0.26
			c1.1-0.51,1.46-2.18,0.83-3.15c-0.73-1.13-1.98-1.37-3.15-0.83c-2.01,0.93-3.01,3.16-3.39,5.23c-0.17,0.91-0.24,1.83-0.47,2.73
			c-0.05,0.19-0.11,0.38-0.17,0.57c-0.09,0.25-0.09,0.25,0.02-0.01c-0.05,0.12-0.11,0.23-0.17,0.34c-0.06,0.11-0.39,0.54-0.06,0.16
			c-0.08,0.1-0.17,0.19-0.26,0.28c-0.29,0.25-0.18,0.19,0.34-0.17c0.41,0,0.82,0,1.23,0c0.37,0.37,0.75,0.75,1.12,1.12
			c0.03,0.34,0.04,0.4,0.03,0.18c0.02-0.16,0-0.32,0.01-0.48c0.01-0.17,0.01-0.16,0,0.02c0.02-0.08,0.03-0.16,0.05-0.24
			c0.04-0.16,0.08-0.31,0.12-0.47c0.12-0.39,0.26-0.78,0.42-1.15c-0.09,0.22,0.03-0.06,0.06-0.13c0.08-0.18,0.16-0.36,0.24-0.54
			c0.08-0.18,0.17-0.35,0.26-0.52c0.06-0.11,0.12-0.31,0.04-0.1c0.05-0.05,0.1-0.1,0.15-0.15c-0.16,0.11-0.18,0.12-0.04,0.02
			c0.12-0.09,0.24-0.16,0.37-0.23c0.65-0.38,1.32-0.73,2-1.05c0.15-0.07,0.3-0.14,0.45-0.21c-0.27,0.11,0.16-0.05,0.24-0.08
			c0.34-0.12,0.69-0.22,1.04-0.3c0.12-0.03,0.35-0.06,0.1-0.03c0.2-0.02,0.4-0.03,0.6-0.03c0.07,0,0.6,0.03,0.22-0.02
			c0.15,0.02,0.31,0.06,0.46,0.09c0.19,0.05,0.38,0.1,0.56,0.16c0.06,0.02,0.52,0.21,0.21,0.07c0.32,0.15,0.64,0.32,0.95,0.5
			c0.66,0.38,1.28,0.82,1.9,1.26c0.99,0.7,2.61,0.21,3.15-0.83C54.74,54.64,54.34,53.42,53.28,52.68L53.28,52.68z"/>
	</g>
</g>
<g>
	<path class="st20" d="M13.48,81.65c-0.55,0.08-1.18,0.08-1.55-0.34c-0.32-0.37-0.3-0.95-0.04-1.36c0.26-0.41,0.7-0.68,1.16-0.84
		c1.22-0.44,2.84-0.12,3.39,1.06c0.14,0.3,0.19,0.65,0.07,0.95c-0.16,0.36-0.57,0.58-0.96,0.58c-0.4,0.01-0.78-0.16-1.11-0.38
		c-1.14-0.75-1.8-2.12-1.84-3.49c-0.04-1.36,0.47-2.71,1.27-3.82c0.86-1.19,2.09-2.15,3.51-2.53"/>
	<g>
		<path class="st20" d="M13.48,78.77c-0.28,0.04-0.56,0.05-0.84,0.02c0.26,0.03,0.51,0.07,0.77,0.1c-0.36-0.07-0.34-0.22,0.19,0.11
			c0.25,0.25,0.5,0.5,0.74,0.74c0.17,0.48,0.22,0.58,0.15,0.29c0.03,0.26,0.07,0.51,0.1,0.77c-0.01-0.1-0.01-0.19,0-0.29
			c-0.03,0.26-0.07,0.51-0.1,0.77c0.01-0.1,0.03-0.19,0.06-0.29c-0.07,0.3-0.22,0.56-0.44,0.78c0.35-0.37-0.63,0.37-0.07,0.05
			c0.56-0.32-0.56,0.14-0.1,0.04c0.17-0.04,0.34-0.09,0.51-0.12c-0.26,0.03-0.51,0.07-0.77,0.1c0.31-0.04,0.61-0.04,0.93,0
			c-0.26-0.03-0.51-0.07-0.77-0.1c0.17,0.03,0.34,0.08,0.51,0.12c0.4,0.09-0.36-0.11-0.33-0.15c0.01-0.01,0.25,0.15,0.27,0.16
			c0.28,0.13-0.54-0.4-0.29-0.22c0.09,0.06,0.3,0.35-0.02-0.05c-0.38-0.48,0.04,0.24-0.17-0.29c-0.19-0.47-0.03-0.01-0.01,0.11
			c-0.03-0.26-0.07-0.51-0.1-0.77c0.01,0.11,0.01,0.22-0.02,0.32c0.03-0.26,0.07-0.51,0.1-0.77c0.06-0.14,0.12-0.28,0.18-0.42
			c0.83-0.7,1.07-0.94,0.7-0.73c-0.24,0.13,0.72-0.23,0.25-0.14c0.26-0.03,0.51-0.07,0.77-0.1c-0.1,0.01-0.2,0.01-0.3,0
			c0.26,0.03,0.51,0.07,0.77,0.1c-0.11-0.01-0.22-0.04-0.33-0.07c0.39,0.18,0.49,0.22,0.3,0.12c-0.09-0.06-0.59-0.4-0.17-0.08
			c0.43,0.33-0.07-0.11-0.15-0.18c-0.37-0.34,0.36,0.56,0.08,0.11c-0.08-0.13-0.16-0.25-0.23-0.39c-0.05-0.09-0.09-0.18-0.13-0.27
			c0.06,0.14,0.12,0.27,0.17,0.41c-0.18-0.21-0.22-0.78-0.26-1.03c0.03,0.26,0.07,0.51,0.1,0.77c-0.05-0.44-0.04-0.87,0.01-1.3
			c-0.03,0.26-0.07,0.51-0.1,0.77c0.05-0.31,0.11-0.61,0.2-0.91c0.03-0.09,0.15-0.31,0.14-0.4c-0.17,0.4-0.22,0.49-0.13,0.29
			c0.03-0.08,0.07-0.16,0.11-0.23c0.13-0.26,0.27-0.5,0.43-0.74c0.08-0.12,0.18-0.31,0.29-0.41c-0.14,0.13-0.41,0.5-0.1,0.15
			c0.17-0.2,0.36-0.39,0.55-0.56c0.09-0.08,0.22-0.16,0.3-0.26c-0.36,0.27-0.45,0.34-0.27,0.21c0.06-0.05,0.13-0.09,0.19-0.13
			c0.22-0.15,0.45-0.26,0.68-0.39c0.48-0.28-0.65,0.21-0.11,0.04c0.15-0.05,0.3-0.1,0.45-0.14c1.45-0.41,2.49-2.06,2.01-3.54
			c-0.48-1.48-1.99-2.45-3.54-2.01c-2.54,0.72-4.81,2.64-5.93,5.03c-1.2,2.57-1.42,5.68,0.29,8.1c1.03,1.46,2.61,2.73,4.49,2.73
			c2.53,0.01,4.4-2.21,3.89-4.7c-0.61-3.04-4.17-4.45-6.94-3.58c-1.99,0.63-3.69,2.28-3.59,4.5c0.11,2.41,2.33,4.05,4.66,3.73
			c0.8-0.11,1.44-0.25,2.04-0.84c0.5-0.5,0.88-1.32,0.84-2.04c-0.03-0.75-0.28-1.52-0.84-2.04C15,79.14,14.22,78.67,13.48,78.77
			L13.48,78.77z"/>
	</g>
</g>
<path class="st123" d="M91.27,44.93l-4.88,3.34c-1.77,1.21-4.44,0.16-4.44-1.75v-5.26V26.35c0-9.86,9.58-17.85,21.39-17.85h26.07
	c11.82,0,21.39,7.99,21.39,17.85v0c0,9.89-9.63,17.89-21.48,17.85l-35.19-0.12C93.1,44.08,92.08,44.38,91.27,44.93z"/>
<path class="st123" d="M167.5,93.93l4.88,3.34c1.77,1.21,4.44,0.16,4.44-1.75v-5.26V75.35c0-9.86-9.58-17.85-21.39-17.85h-26.07
	c-11.82,0-21.39,7.99-21.39,17.85v0c0,9.89,9.63,17.89,21.48,17.85l35.19-0.12C165.67,93.08,166.69,93.38,167.5,93.93z"/>
</svg>
